<?xml version="1.0" encoding="utf-8"?>
<!-- Generator: Adobe Illustrator 28.0.0, SVG Export Plug-In . SVG Version: 6.00 Build 0)  -->
<svg version="1.1" id="Layer_1" xmlns="http://www.w3.org/2000/svg" xmlns:xlink="http://www.w3.org/1999/xlink" x="0px" y="0px"
	 viewBox="0 0 628.4 874.1" style="enable-background:new 0 0 628.4 874.1;" xml:space="preserve">
<style type="text/css">
	.st0{fill:#FFFFFF;}
</style>
<path class="st0" d="M314.2,874.1c173.2,0,314.2-141.2,314.2-314.7c0-60.3-17.1-116.6-46.6-164.5c9.5-3.6,15.5-11.6,17.2-23.9
	c1.8-13.1-0.8-24.5-8-36.8l-0.1-0.3c0,0-0.1,0-0.2-0.1c-2.2-3.8-4.9-7.6-8-11.7c-14.7-18.9-20.3-27.3-26-34c-5-5.9-12.3-19.9-8-29.3
	c4.3-9.4,15.9-6.5,18.7-0.6c1.9,3.9-2.3,6.3-2.3,6.3s-2.2-5.7-9-2.8c-5.9,2.5-3.4,12,2.5,13.8c6.6,1.9,10.4-0.4,12.3-1.8
	c2-1.4,7.6-7.9,3-16.6c-1.4-2.6-4-5.1-7.1-7.1h8.5l0.1-5.3c0.1-4.9,3.3-6.9,6.4-8.4c8.7-4.5,7.7-7.6,7.1-11
	c-0.7-4.6-7.1-5.2-7.1-5.2l-55.3,0.3v-36.3h-1.1c-8.5-4.1-8.8-11-8.8-11l-0.2-2.8c1.8-1.2,3.4-2.9,4.6-5.2c0.8-1.4,2-6.3,2.5-6.9
	c2.2,3.4,8.5,1.2,10.2-1.7c0.8-1.3,1.7-4-0.3-7.6c-2-3.6-6.3-4.8-11.3-3.6c-1.4-7.3-6.4-14.8-12.9-17.4l-1.2-13.3
	c0,0-1.8-17.5-3.8-17.5s-3.9,18-3.9,18l-1.2,12.9c-6.5,2.7-11.5,10.1-12.9,17.4c-5-1.1-9.4,0.1-11.3,3.6c-2,3.7-1.1,6.3-0.3,7.6
	c1.7,2.9,8,5,10.2,1.7c0.4,0.6,1.7,5.5,2.5,6.9c1.3,2.4,3.1,4.2,5,5.4l-0.2,2.5c0,0.3-2,7.5-10.2,11h-0.1v27.3
	c-11-26.4-45.9-88.8-133-101.5V82.6l-3.5-0.5c-3.3-0.5-13.3-3-15.6-7.9l-1.1-2.3h-0.6c0,0,2-2.1,2.8-3.6c0.8-1.4,2-6.3,2.5-6.9
	c2.2,3.4,8.5,1.2,10.2-1.7c0.8-1.3,1.7-4-0.3-7.6c-2-3.6-6.3-4.8-11.3-3.6C330,41.1,325,33.6,318.5,31L317.3,18c0,0-1.8-18-3.8-18
	s-3.8,17.6-3.8,17.6L308.4,31c-6.5,2.7-11.5,10.1-12.9,17.5c-5-1.1-9.4,0.1-11.4,3.6c-2,3.7-1.1,6.4-0.3,7.6c1.7,2.9,8,5.1,10.2,1.7
	c0.4,0.6,1.7,5.5,2.5,6.9c0.8,1.5,1.8,2.7,2.8,3.8l-1.2,0l-1.1,2.4c-0.1,0.3-3.1,6.4-13.9,6.5h-4.5v29.1
	c-85.9,13.1-132,101.7-132,101.7v-26.9h-0.1c-8.2-3.6-10.2-10.8-10.2-11.1l-0.2-2.5c1.9-1.2,3.7-3,5-5.4c0.8-1.4,2-6.3,2.4-6.9
	c2.2,3.4,8.4,1.2,10.1-1.7c0.8-1.3,1.7-4-0.3-7.6c-2-3.6-6.3-4.8-11.3-3.6c-1.4-7.3-6.4-14.8-12.9-17.5l-1.2-12.9c0,0-1.8-18-3.9-18
	s-3.8,17.6-3.8,17.6l-1.2,13.4c-6.5,2.7-11.5,10.1-12.9,17.5c-5-1.1-9.3,0.1-11.3,3.6c-2,3.7-1.1,6.4-0.3,7.6
	c1.7,2.9,8,5.1,10.1,1.7c0.4,0.6,1.7,5.5,2.4,6.9c1.2,2.3,2.9,4,4.6,5.2l-0.2,2.8c0,0.1-0.4,7-8.8,11.1h-0.2v35l-56.6-0.3
	c0,0-6.5,0.6-7.2,5.3c-0.5,3.5-1.5,6.6,7.2,11.2c3.1,1.6,6.3,3.6,6.4,8.5l0.1,5.3h9.4c-3.1,2-5.7,4.5-7.1,7.1
	c-4.7,8.7,1,15.2,3,16.6c2,1.4,5.7,3.7,12.4,1.8c5.9-1.7,8.4-11.2,2.5-13.8c-6.8-2.9-8.9,2.8-8.9,2.8s-4.2-2.4-2.3-6.3
	c2.8-5.9,14.4-8.8,18.7,0.6s-3,23.4-8,29.3c-5.7,6.7-11.4,15.1-26,34c-3.1,4-5.8,7.9-8.1,11.7c-0.1,0-0.1,0.1-0.1,0.1l-0.1,0.2
	c-7.3,12.3-10,23.8-8,36.9c1.5,9.6,6.1,19.8,16.9,24C17.1,442.9,0,499.2,0,559.4C0,732.9,140.9,874.1,314.2,874.1 M554.9,298.2
	c5.2,6.5,12.6,15.5,21.6,28c-3-1.4-6.2-2.7-9.4-3.6c-11.5-3.4-21.6-0.7-21.6-0.7s12.1,2.3,17,3.9c8.3,2.7,11.1,4.5,16.9,10.2
	c0,0-5.7-2-13.1-3.3c-7.6-1.4-15.1-0.2-15.1-0.2c4.3,0.5,13.3,4.4,19.3,6.6c7.8,2.9,10.2,4.8,13.2,7.8c0,0-8.2-3.9-14.7-4.7
	c-10.7-1.3-15.9,0.4-15.9,0.4c6.6,1,16,4.1,20.7,5.5c3.9,1.1,19.9,6.1,19.4,24.2c-0.7,5.4-2.7,10.6-6.8,15c-2.1,2.2-5.1,3.8-7.2,3.7
	h0c-0.1,0-0.3,0-0.5,0c-7.6-1.5-4.8-8.2-7-8.8c-0.7-0.2-3.3,7.9,0.3,10.8c0,0,0,0-0.1,0c0,0,0,0,0,0c-0.1,0-0.2,0-0.3,0h-0.4
	c-0.3-0.1-0.7-0.2-1.2-0.4c-0.7-0.2-1.4-0.6-1.9-1c-1.2-1.1-1.7-2.9-1.9-4.8c-0.3-2.9,0.1-5.9,0.1-7.2v-0.1c0-0.3,0-0.5-0.1-0.5
	c-0.1-0.1-0.2,0-0.3,0.1c-0.1,0-0.1,0.1-0.1,0.1c-0.1,0.1-0.3,0.3-0.5,0.6c-0.1,0.1-0.1,0.1-0.2,0.2c-0.5,0.8-1,1.8-1.5,3.1l0,0
	c-0.6,1.5-1.1,3.2-1.3,4.9c-0.1,0.9-2.2-2.4-2.3-3.4c-0.4-2.1-0.4-4.8,0.1-6.5c0.1-0.2,0.1-0.5,0.2-0.7c1.8-4.2,3.3-5.1,4.2-5.7
	c0.1,0,0.2-0.1,0.2-0.1c0,0,0.1,0,0.1-0.1c0.1-0.1,0.2-0.1,0.3-0.2l0,0c2.6-2.5,11.7-2.5,14.2,4c-2.7-0.4-5.4,0.8-4.9,4.6
	c1,2.9,4.3,3.5,5.8,3c1.1-0.3,2.1-0.8,3.5-3.1c1.2-2,2.8-5,0.8-10.2c-6.6-17-24.5-11.3-35.5-18.1c-0.6-0.3-1.1-0.7-1.7-1.1
	c-0.6-0.5-1.2-1-1.7-1.5c-0.4-0.5-0.7-0.9-1-1.4c-0.3-0.5-0.5-1-0.6-1.4h0.2c-2-6.3,4.9-13.2-3.5-20.4l0,0c-0.3-0.3-0.7-0.6-1.1-0.9
	c-0.6-0.4-1.2-0.9-1.9-1.3c0.3-0.8,0.7-1.5,1.2-2.2c0-0.1,0.1-0.1,0.1-0.2c0.5-0.6,1.1-1.1,1.7-1.6c4.8-3.4,13-1.8,13-1.8
	c-2.4-5.1-9.4-15-13-25.9c0-0.1-0.1-0.2-0.1-0.2c-0.3-1-0.6-2-0.9-3c-0.1-0.4-0.2-0.9-0.3-1.3c-0.2-0.6-0.3-1.3-0.4-1.9
	c-0.1-0.5-0.2-1.1-0.2-1.6c-0.1-0.5-0.1-1-0.2-1.5c-0.2-2.4-0.2-4.7,0.2-7c0-0.2,0.1-0.5,0.1-0.8c0.2-0.8,0.3-1.5,0.6-2.3
	c0.1-0.2,0.2-0.5,0.2-0.7c0.2-0.8,0.5-1.6,0.9-2.3c0.4-1,0.9-1.9,1.5-2.8c-0.6,4-1.4,15,12.9,32.6 M525.9,148.4
	c2.6,0,3.6,0.8,4.4,1.9c1.1,1.5,1.3,3,0.4,4.3c-1.3,1.9-2.2,2.3-3.6,2.4c-3.7-0.4-3.2-5.3-3.2-5.3c-3.9,0.7-3.7,9.3-8.5,13.5
	c-2.1,1.9-4.8,1.4-7.1,1c0.9-3.2,3.5-11.4,9.7-15C520.5,149.7,522.7,148.4,525.9,148.4 M516.4,185h-19.1c3.5-2.9,5.1-5.9,5.8-8h8.4
	c0.6,2.1,2,5.1,4.6,8 M504.4,133.1c5.8,0,11.3,7.8,12.2,14.7c-0.2,0.1-0.3,0.1-0.5,0.2c-1.6,0.9-3,1.9-4.2,3
	c-0.1-1.6-0.1-3.2-0.3-4.3c-0.2-1.4-0.6-7-1.5-8c-1.5,4-1.6,10.4-1.7,16c-0.8,1-1.5,2-2,3c0-0.3,0-0.7,0-1c-0.1-3-0.2-6.4-0.5-8.5
	c-0.2-1.4-0.6-7-1.5-8c-1.7,4.4-1.6,11.8-1.7,17.6c-0.5-0.9-1.1-1.8-1.7-2.6c-0.1-2.8-0.2-5.7-0.4-7.6c-0.2-1.4-0.6-7-1.5-8
	c-1.3,3.5-1.4,7.7-1.4,11.9c-0.9-0.8-1.9-1.6-3-2.4C494.6,142,498.1,133.1,504.4,133.1 M485.4,151.4c0,0-0.7,5-3.5,5.4
	c-1.4-0.1-2.4-0.6-3.7-2.5c-0.8-1.2-0.5-2.6,0.7-4.1c0.8-1.1,1.3-1.9,3.8-1.9c3.2,0,5.4,1.3,7.8,2.8c6.2,3.5,8.8,11.8,9.7,15
	c-2.4,0.5-4.9,0.1-7-1.8C488.5,160.1,489.3,152.1,485.4,151.4 M490.4,191h29v29l-1.4,1h-1.6v-26h-22v26h-4V191z M510.4,219h-10v-18
	h10V219z M348.4,117c98.9,12.9,130.2,108.6,130.5,110h98c0-0.7,5.5-1.1,4.3,2.6c-1,3-5.7,3.7-7.4,4.4H470.7
	c-3.4-12.9-28.7-92-122.2-108.7L348.4,117L348.4,117z M348.4,131v-1.6c97.6,18,118.5,105.5,118.7,106.4l0.3,2.1H571l-1.8,3H464.3
	c-21.3-77.3-79-101.3-115.8-108.6c0.2-1,0.3-1.6,0.3-1.8 M484.4,260v33.5c-3.3-2-6.6-3.9-10-5.8v-37.8h4.5c0,0.6,0.1,1.2,0.1,1.9
	c0.1,1.4,0.1,3,0.4,4.4c0.2,0.7,1,0.5,1.3,0c0.7-1.7,1-4.1,1-6.2h2c0,0.4,0.1,0.7,0.2,1.1c0.3,1.6,0.2,3.4,0.5,5c0.2,1,1.8,1,1.9,0
	c0.2-1.7,0.2-3.4,0.5-5c0-0.4,0.1-0.7,0.2-1.1h1.8c-0.2,2,0.4,4.2,0.5,6c0.1,1.3,1.8,1.3,1.9,0c0-1.2,0.2-2.5,0.2-3.7
	c0-0.9,0.3-1.6,0.4-2.3h2.4c0,0.1,0,0.1,0,0.2c0.1,1.9,0.1,3.7-0.2,5.6c-0.3,1.5,1.8,2.1,2.2,0.6c0.4-1.6,0.6-3.1,0.7-4.8
	c0-0.5,0.1-1.1,0.1-1.6h2.2c0,0.3,0.1,0.6,0.1,1c0,0.7-0.1,1.5-0.1,2.2c0,1.1,0.2,1.9,0.3,3c0,1,1.4,1,1.5,0
	c0.2-1.8,0.5-3.9,0.9-5.6c0-0.2,0.1-0.4,0.1-0.6h2.1c0,0.2,0,0.5,0.1,0.7c0.2,1.8,0.6,3.5,0.7,5.4c0,1.1,1.8,1.5,2,0.3
	c0.2-1.6,0.2-3.1,0.3-4.7c0-0.6,0.1-1.2,0.1-1.8h2.2c0,0.2,0,0.4,0,0.7c0.1,1.9,0.2,3.8,0.5,5.7c0.1,0.8,1.4,0.8,1.6,0
	c0.3-1.9,0.4-3.8,0.5-5.7c0-0.2,0-0.4,0-0.7h2.1c0,0.7,0.1,1.5,0.1,2.2c0.1,1.4,0.1,3,0.4,4.4c0.1,0.7,1,0.5,1.3,0
	c0.7-1.8,1.1-4.4,1-6.6h1.6c0,0.4,0.1,0.9,0.2,1.3c0.3,1.6,0.2,3.4,0.5,5c0.1,1,1.8,1,1.9,0c0.2-1.7,0.2-3.4,0.5-5
	c0.1-0.5,0.1-0.9,0.2-1.3h1.7c-0.2,1.9,0.4,4.1,0.5,5.9c0.1,1.2,1.8,1.3,1.9,0c0.1-1.2,0.2-2.5,0.2-3.7c0.1-0.8,0.2-1.5,0.4-2.2h1.4
	c0,0.2,0,0.4,0.1,0.7c0.1,1.9,0.2,3.8,0.5,5.7c0.1,0.8,1.4,0.8,1.6,0c0.3-1.9,0.4-3.8,0.5-5.7c0-0.2,0-0.4,0.1-0.7h1.8v81.3
	c-2.6-2.6-5.3-5.2-8-7.7v-63.6L484.4,260L484.4,260z M517.4,275v45.7c-8.9-7.7-18.3-14.8-28-21.5v-24.2h3.3
	c0.1,4.5,0.4,9.2,1.6,12.3c0.9-0.9,1.3-6.5,1.5-8c0.2-1.2,0.2-2.7,0.3-4.4h2.2c0.1,4.8,0.3,9.9,1.6,13.3c0.9-0.9,1.3-6.5,1.5-8
	c0.2-1.4,0.3-3.3,0.3-5.3h3.3c0.1,4.8,0.4,9.9,1.6,13.3c0.9-0.9,1.3-6.5,1.5-8c0.2-1.4,0.3-3.3,0.3-5.3h2.9
	c0.1,4.9,0.3,10.1,1.6,13.6c0.9-0.9,1.3-6.5,1.5-8c0.2-1.4,0.3-3.5,0.3-5.6L517.4,275L517.4,275z M327.1,54.1
	c2.5-1.4,4.7-2.8,7.8-2.8c2.5,0,3,0.8,3.8,1.9c1.1,1.5,1.5,2.8,0.7,4.1c-1.3,1.9-2.2,2.4-3.7,2.5c-2.8-0.4-3.5-5.4-3.5-5.4
	c-3.9,0.7-3.1,8.7-8,12.9c-2.1,1.8-4.6,2.2-7,1.8C318.3,65.9,320.9,57.6,327.1,54.1 M313.4,36.1c6.2,0,9.8,8.9,9.9,16
	c-1.1,0.7-2.1,1.5-3,2.4c0-4.3-0.1-8.5-1.4-11.9c-0.9,0.9-1.3,6.6-1.5,8c-0.3,1.9-0.3,4.8-0.4,7.6c-0.7,0.9-1.2,1.8-1.7,2.6
	c-0.1-5.9,0-13.2-1.7-17.6c-0.9,0.9-1.3,6.5-1.5,8c-0.3,2.1-0.3,5.5-0.5,8.5c0,0.3,0,0.7,0,1c-0.6-1-1.2-2-2-3
	c-0.1-5.6-0.2-12-1.7-16c-0.9,0.9-1.3,6.5-1.5,8c-0.2,1.2-0.2,2.7-0.3,4.3c-1.2-1.1-2.6-2.1-4.2-3c-0.2-0.1-0.3-0.1-0.5-0.2
	C302.1,43.9,307.5,36.1,313.4,36.1 M293.8,54.5c0,0,0.5,4.9-3.2,5.3c-1.4-0.1-2.4-0.5-3.6-2.4c-0.8-1.2-0.7-2.8,0.4-4.3
	c0.8-1.1,1.9-1.9,4.4-1.9c3.2,0,5.4,1.3,7.8,2.8c6.2,3.6,8.8,11.8,9.7,15c-2.3,0.4-5,0.9-7.1-1C297.5,63.9,297.8,55.2,293.8,54.5
	 M286.4,88.5c9-1.1,13.8-5.6,16-8.6h21c4.2,5.6,12.3,8.3,17,9.4v40.2c0,0.5-1.4,11.4-26.1,11.4h-0.5c-24.1-0.2-27-10-27.3-11.4
	L286.4,88.5L286.4,88.5z M137.9,151.1c2.5-1.4,4.7-2.8,7.8-2.8c2.5,0,3,0.8,3.9,1.9c1.1,1.5,1.5,2.8,0.7,4.1
	c-1.3,1.9-2.2,2.4-3.6,2.5c-2.8-0.4-3.5-5.4-3.5-5.4c-4,0.7-3.1,8.7-8,12.9c-2.1,1.8-4.6,2.2-7,1.8
	C129.1,162.9,131.8,154.7,137.9,151.1 M131.4,184.9h-19c2.6-2.9,4-5.9,4.6-8h8.4c0.7,2.1,2.3,5.1,5.8,8 M124.2,133.1
	c6.2,0,9.8,8.9,9.9,16c-1.1,0.8-2.1,1.5-3,2.4c0-4.2-0.1-8.5-1.4-11.9c-0.9,0.9-1.3,6.5-1.5,8c-0.3,1.9-0.3,4.8-0.4,7.6
	c-0.7,0.9-1.2,1.8-1.7,2.6c-0.1-5.9,0-13.2-1.7-17.6c-0.9,0.9-1.3,6.5-1.5,8c-0.3,2.1-0.3,5.5-0.5,8.5c0,0.3,0,0.7,0,1
	c-0.6-1-1.2-2-2-3c-0.1-5.5-0.2-12-1.7-16c-0.9,0.9-1.3,6.5-1.5,8c-0.2,1.2-0.2,2.7-0.3,4.3c-1.2-1-2.6-2.1-4.2-3
	c-0.2-0.1-0.3-0.1-0.5-0.2C112.9,140.9,118.4,133.1,124.2,133.1 M104.7,151.6c0,0,0.5,5-3.2,5.3c-1.4-0.1-2.4-0.5-3.6-2.4
	c-0.8-1.2-0.7-2.8,0.4-4.3c0.8-1.1,1.9-1.9,4.4-1.9c3.2,0,5.4,1.3,7.8,2.8c6.2,3.5,8.9,11.8,9.7,15c-2.4,0.5-5,0.9-7.1-1
	C108.3,160.9,108.6,152.3,104.7,151.6 M108.4,190.9h29v29h-3v-25h-22v25h-4V190.9z M128.4,218.9h-10v-18h10V218.9z M46.8,229.2
	c-1.2-3.6,4.3-3.2,4.3-3.2l98.1,0.4c0.3-1,31.5-94.6,129.3-107.7v8.1c-92.5,16.8-117.6,94.2-121,106.2H54.2
	C52.5,232.8,47.8,232.1,46.8,229.2 M59.3,240.9l-1.9-3h103.6l0.4-2.1c0.2-1,20.9-88,117-106.3v1.4c0.5,0.1,0.6,0.7,0.8,1.6
	c-36.8,7.5-93.8,31.7-115,108.5L59.3,240.9L59.3,240.9z M104.4,259.9v63.4c-2.7,2.5-5.4,5-8,7.6v-81h-0.5c0,0.6,0.1,1.2,0.1,1.9
	c0.1,1.4,0.1,3,0.4,4.4c0.2,0.7,1.1,0.5,1.4,0c0.7-1.7,1.1-4.1,1.1-6.2h2.2c0,0.4,0.1,0.7,0.2,1.1c0.3,1.6,0.3,3.4,0.5,5
	c0.2,1,2,1,2.1,0c0.3-1.7,0.2-3.4,0.5-5c0.1-0.4,0.1-0.7,0.2-1.1h1.9c-0.2,2,0.5,4.2,0.6,6c0.1,1.3,2,1.3,2.1,0
	c0.1-1.2,0.2-2.5,0.2-3.7c0-0.9,0.3-1.6,0.4-2.3h2.6l0,0c0.2,1.9,0.1,3.8-0.2,5.7c-0.3,1.5,2,2.1,2.4,0.6c0.4-1.6,0.7-3.1,0.8-4.8
	c0-0.5,0.1-1.1,0.1-1.6h2.4c0.1,0.7,0.1,1.3,0.1,2.1c0,0.1,0,0.2,0,0.3c-0.3,1.5,0.1,2.5,0.2,3.8c0.1,1.1,1.9,0.9,1.5-0.4
	c-0.3-1.2-0.2-2.5,0.4-3.5c0.5-0.8,0.6-1.5,0.7-2.2h2.3c0,0.2,0.1,0.5,0.1,0.7c0.3,1.8,0.7,3.5,0.7,5.4c0,1.1,2,1.5,2.2,0.3
	c0.3-1.6,0.3-3.1,0.3-4.7c0-0.6,0.1-1.2,0.1-1.8h2.4c0,0,0,0,0,0c0.1,2.2,0.1,4.2,0.6,6.4c0.2,0.8,1.6,0.8,1.7,0
	c0.4-2.1,0.5-4.2,0.6-6.4l0,0h2.4c0,0.7,0.1,1.5,0.1,2.2c0.1,1.4,0.1,3,0.4,4.4c0.2,0.7,1.1,0.5,1.4,0c0.8-1.8,1.2-4.4,1.1-6.6h1.8
	c0,0.4,0.1,0.9,0.2,1.3c0.3,1.6,0.3,3.4,0.5,5c0.2,1,2,1,2.1,0c0.3-1.7,0.3-3.4,0.5-5c0.1-0.5,0.1-0.9,0.2-1.3h1.9
	c-0.2,1.9,0.5,4.1,0.6,5.9c0.1,1.2,2,1.3,2.1,0c0.1-1.2,0.2-2.5,0.3-3.7c0-0.8,0.3-1.5,0.4-2.2h1.5l0,0c0.1,3,0.2,5.8,1.2,8.8
	c0.1,0.2,0.4,0.2,0.5,0c1-3,1.1-5.8,1.2-8.8h0l1.8,0v37.6c-3.4,1.9-6.7,3.8-10,5.8v-33.4L104.4,259.9L104.4,259.9z M138.4,274.9v24
	c-9.7,6.6-19.1,13.8-28,21.4v-45.5h2.4c0.1,2.1,0.1,4.1,0.4,5.6c0.2,1.4,0.6,7,1.5,8c1.3-3.4,1.5-8.6,1.6-13.6h2.9
	c0.1,2,0.1,3.9,0.3,5.3c0.2,1.4,0.6,7,1.5,8c1.3-3.4,1.5-8.5,1.6-13.3h3.3c0.1,2,0.1,3.9,0.3,5.3c0.2,1.4,0.6,7,1.5,8
	c1.3-3.4,1.5-8.5,1.6-13.3h3c0.1,2,0.1,3.9,0.3,5.3c0.2,1.4,0.6,7,1.5,8c1.3-3.4,1.5-8.5,1.6-13.3L138.4,274.9L138.4,274.9z
	 M42,387.2c-4.1-4.5-6.1-9.7-6.8-15c-0.4-18.1,15.6-23.1,19.5-24.2c4.7-1.4,14.1-4.5,20.7-5.5c0,0-5.2-1.7-15.9-0.4
	c-6.6,0.8-14.8,4.7-14.8,4.7c3-3.1,5.5-5,13.2-7.8c6-2.2,15-6.1,19.4-6.6c0,0-7.5-1.2-15.1,0.2c-7.4,1.4-13.1,3.3-13.1,3.3
	c5.9-5.7,8.6-7.5,16.9-10.2c4.9-1.6,17-3.9,17-3.9S73,319,61.5,322.4c-3.2,0.9-6.4,2.2-9.4,3.6c9-12.5,16.3-21.5,21.6-28
	c14.3-17.6,13.5-28.6,12.9-32.6c0.6,1,1,1.9,1.5,2.9c0.3,0.7,0.6,1.5,0.8,2.2c0.1,0.3,0.2,0.6,0.3,0.9c0.2,0.7,0.4,1.5,0.5,2.2
	c0,0.3,0.1,0.6,0.1,0.9c0.4,2.3,0.4,4.6,0.2,6.9c0,0.5-0.1,1-0.1,1.5c-0.1,0.5-0.2,1.1-0.3,1.6c-0.1,0.6-0.2,1.3-0.4,1.9
	c-0.1,0.5-0.2,0.9-0.3,1.4C85.8,300,77.6,311.3,75,317c0,0,8.2-1.5,13,1.9c0.6,0.5,1.2,1,1.7,1.6c0,0.1,0.1,0.1,0.1,0.2
	c0.5,0.6,0.9,1.3,1.2,2.2c-0.7,0.4-1.3,0.9-1.9,1.3c-0.4,0.3-0.7,0.6-1.1,0.9l0,0c-8.4,7.1-1.8,13.9-3.5,20.2
	c-0.1,0.5-0.3,1-0.6,1.5c0,0,0,0.1,0,0.1c-0.3,0.5-0.6,1-1.1,1.6c-0.6,0.6-1.2,1.2-1.9,1.7c-0.6,0.5-1.3,0.9-1.9,1.3
	c-11.2,6.5-28.9,1-35.5,18c-2,5.2-0.4,8.3,0.8,10.3c1.4,2.3,2.5,2.8,3.5,3.1c1.5,0.4,4.9-0.1,5.9-3c0.5-3.8-2.2-5-5-4.6
	c2.5-6.5,11.4-6.5,14.2-4.1c0,0,0.1,0,0.1,0.1c0.9,0.9,2.6,1,4.9,6.2c0.7,1.6,0.7,4.9,0.3,7.3c-0.2,1.1-2.2,4.4-2.4,3.5
	c-0.2-1.8-0.8-3.6-1.4-5.2c-0.2-0.6-0.5-1.2-0.8-1.7c-0.1-0.1-0.1-0.2-0.2-0.3c-0.2-0.4-0.4-0.7-0.5-1c-0.1-0.1-0.1-0.2-0.2-0.3
	c-0.1-0.2-0.3-0.4-0.4-0.5c0,0-0.1-0.1-0.1-0.2c-0.1-0.1-0.3-0.2-0.4-0.1c-0.1,0.1-0.1,0.3-0.1,0.5c0,0,0,0.1,0,0.1
	c0,1,0.2,3.1,0.2,5.3l0,0.8c0,0.3,0,0.5,0,0.8c-0.2,2-0.7,4-2,5.2c-0.6,0.5-1.4,0.9-2.2,1.1c-0.6,0.2-1.1,0.3-1.3,0.3l0,0
	c-0.1,0-0.1,0,0,0c3.5-2.9,1-10.8,0.3-10.7c-2.2,0.6,0.6,7.1-6.9,8.7C47.6,391.4,44.3,389.6,42,387.2 M55,396.5
	c7.9,0.4,22.1-5.5,19.3-19.9c-0.4-1.9-1-3.6-1.8-5.2c24.5-31.5,55-58.3,89.9-78.2v-43.3h10.1c21.2-81.8,82.3-101.1,116.2-105.5
	c5.2,3.1,13.1,5.5,25.1,5.5h0.6c11.9,0,19.7-2.4,24.7-5.6c33.8,4.4,95,23.8,116.2,105.6h10.2v43.4c34.8,20,65.3,46.7,89.8,78.3
	c-0.7,1.5-1.3,3.1-1.7,5c-2.8,14.3,11.2,20.2,19.2,19.9c29.6,47,46.7,102.6,46.7,162.1c0,168.6-137.1,305.7-305.6,305.7
	S8.2,727.2,8.2,558.6C8.2,499.1,25.4,443.5,55,396.5"/>
<path class="st0" d="M401.9,232.9c0,33-14.5,59.3-42.8,75.4l-4.7,2.7l5.4,0.9c40.8,6.8,76.5,28,76.9,28.2l2.1,1.3l0.7-2.4
	c40.6-130.4-61.4-177.4-69.8-177.4l-0.6,1.1C389.4,179.1,401.9,206.9,401.9,232.9 M385.6,314.3c-6.6-2-13.5-3.7-20.7-5.1
	c8.3-5.3,15.5-11.5,21.3-18.6C383.3,297.6,382.4,306.9,385.6,314.3 M405,245.5c0.1,0.6,0.2,1,0.3,1.3c1.1,3.4,4.6,6.5,8.5,6.9
	c3.2,0.3,10.3-2.9,9.2-8.2c-0.1-0.6-0.7-1.6-1-2c-1.4-2.1-3.3-1.9-4.7-0.9c-1.2,0.9-0.6,3.5-2.4,4c-3.8,1-5.2-3.8-4.9-6.5
	c0.2-2.2,1.9-3.7,2.5-4.4c0.5-0.5,7.3-5.1,14.5,0.7c2.5,2,9.5,13.4-3.2,26.1c-5.4,5.4-13.6,10.3-18.3,12.5c-4,1.2-8.4,3.2-12.9,6.5
	C399.3,270.9,403.4,258.8,405,245.5 M404.8,219.3c0.2,0.3,0.3,0.7,0.5,1c0.2,0.5,0.8,1.4,1.2,1.9c2.2,2.6,4.8,5,7.5,6.6
	c-1.8,0.7-2.9,1.4-3.1,1.5c-2.9,2.1-4.5,4.7-5.4,7.2c0.1-1.5,0.1-3,0.1-4.6C405.7,228.1,405.4,223.6,404.8,219.3 M435.8,334.9
	c-3.9-2.2-13.2-7-25.7-12l1.1,0.4c-13.4-8.1-11.1-28.9-11.1-28.9c-5.8,8.8-0.2,22,1.3,25.2c-1.2-0.4-2.5-0.9-3.7-1.3
	c-10.8-24,9.4-44.1,30.6-33.4c4.4,2.2,7.7,5.3,9.2,9.2c0.2,0.5,1.3,6.5,0.4,9.6c-0.2,0.9-1.3,3.9-2.9,6.7c-2.8,3.8-5.9,6.2-9.2,7.6
	c-1.1,0-2.8,0.4-4.1,0.3c-2.5-0.1-5.8-3-7.2-5.7c-0.6-1.2-3.4-6.2,1.7-10c0.9-0.7,2.7-0.8,3.7-0.1c1.3,1,1.2,3.1,2.4,4.4
	c1.8,1.9,4.2,1.9,6,0.7c0.8-1.5,1.5-1.6,1.8-3.1c0.1-0.8-0.2-1.8-0.3-2.3c-0.2-2.5-3-6.7-7.2-8.5c-7.7-3.4-12.8,2.1-13.6,3.1
	c-0.9,1.2-2,3.6-2.4,5.1c-0.7,2.7-1,6.5-0.4,9.3c0.6,2.6,2.7,7.2,5.2,9.4c4.3,3.8,12.1,3.9,16.3,2.5c1.8-0.6,4-1.9,5.8-3.4
	c0.9-0.7,4.6-4.6,5.3-5.5c1-1.2,2.2-3.4,3.2-6C440.7,316.6,438.7,325.5,435.8,334.9 M439.7,248.7c3.8,13.8,5.5,29.9,3.7,48.6
	c0-0.3,0-0.7-0.1-1c-0.5-2.8-1.8-7.5-3.6-10.2c-2.8-4.4-7.5-7.6-12-9.6c3.5-3,10.6-10,12.5-18.9c0,0-7.3,12-19.4,16.6
	c-0.6-0.1-1.2-0.2-1.9-0.3c13.4-7.8,19.2-19.9,19.5-20.7C439,251.6,439.4,250.1,439.7,248.7 M419.5,210c0.7,1.5-0.5,4.3-2.1,4
	c-1.1-0.2-1-1.7-1.8-2.1c-0.9-0.4-2-0.4-2.7,1c-0.1,0.3-0.3,0.9-0.4,1.3c-0.1,3.3,4.4,4.5,6.3,4c2.2-0.6,3.8-2.6,4.2-4.6
	c4,5.6,7.7,12,10.9,19.1c-0.9-0.8-1.6-1.3-1.7-1.4c-0.7-0.6-4.5-2.3-5.4-2.6c-0.5-0.1-1-0.2-1.5-0.3c-0.3-0.1-0.5-0.3-0.8-0.4
	c-19.7-7.5-15.9-16.7-14.6-18.1c3.7-4.2,7.7-1.8,8-1.6C418.2,208.5,419.1,209,419.5,210 M415,203.3c-1.7-0.1-3.9,0.1-6.4,1.3
	c-0.5,0.3-2.3,1.6-2.6,2c-0.4,0.4-0.9,1.3-1.3,1.9c-0.6,0.9-1,2.8-1.1,3.1c0,0.2,0,0.4-0.1,0.6c-2.3-10-6.5-19.1-12.8-29.3
	C396.3,186.4,405.7,193,415,203.3"/>
<path class="st0" d="M281.6,566.5c-0.8,0.1-0.8,1.1-0.7,2.1c3.5,34.8-7.7,83.3,7.7,107.4c7.8,12.1,27.6,22.8,49.8,16.1
	c35.7-10.7,52.8-73.1,25.2-107.4C346.8,563.8,317,565.7,281.6,566.5"/>
<path class="st0" d="M280.9,552.4c30.2-0.7,54.1,3.5,71.5-8.4c29.2-19.9,31.4-81.5,4.9-107.4c-22-21.5-63.5-9.4-72.9,14
	C273.2,478.5,285.5,520.4,280.9,552.4"/>
<path class="st0" d="M295.4,130.9h-0.3c0.7-1.1,2.1-3.2,1.9-6.1c-0.3-6.1,0.1-15.3-1.8-20.4c-0.9,0.9-1.3,6.6-1.5,8
	c-0.3,2.1-0.3,5.5-0.5,8.5c-0.2,3.7-0.1,7.7,1,9.8c0.5-0.1,0.5,0.2,0.7,0.3"/>
<path class="st0" d="M314.4,135.9h-0.2c0.7-1.1,2-3.1,1.9-6.1c-0.3-6.1,0.1-15.3-1.8-20.4c-0.9,0.9-1.3,6.5-1.5,8
	c-0.3,2.1-0.3,5.5-0.5,8.5c-0.2,3.7-0.2,7.7,1,9.8c0.5-0.1,0.5,0.2,0.7,0.3"/>
<path class="st0" d="M314.2,850.7c160.3,0,290.7-130.6,290.7-291.2c0-106.5-57.4-199.8-142.8-250.5l-12.9,24.5
	c-2.9,6-5.1,10.9-4.4,11.3c1.4,0.9,14.7-18.9,20-27c2.5,1.6,5.1,3.2,7.6,4.9c-5.1,8.2-17.5,28.5-16,29.5c1.4,1,15.6-18,21.4-25.8
	c2.5,1.7,4.9,3.5,7.3,5.3c-5.5,7.9-19,27.5-17.6,28.6c1.3,1.1,16.5-17,22.7-24.5c2.4,1.9,4.7,3.8,7,5.7c-6,7.6-20.4,26.3-19.1,27.5
	c1.3,1.2,17.4-16.1,24-23.2c2.3,2,4.5,4,6.7,6.1c-6.4,7.3-21.7,25.2-20.5,26.4c1.2,1.2,18.2-15.1,25.2-21.9c2.2,2.1,4.2,4.3,6.3,6.5
	c-6.8,7-23.1,23.9-21.9,25.2c1.1,1.3,19-14.1,26.4-20.5c2,2.2,4,4.5,5.9,6.8c-7.2,6.6-24.3,22.6-23.2,24c1.1,1.4,19.8-13,27.4-19
	c1.9,2.3,3.7,4.7,5.6,7.1c-7.5,6.2-25.5,21.2-24.5,22.6s20.4-11.9,28.4-17.5c1.8,2.4,3.5,4.9,5.2,7.4c-7.8,5.8-26.6,19.8-25.7,21.3
	c0.9,1.5,21-10.7,29.3-15.9c1.7,2.5,3.3,5,4.9,7.6c-8.1,5.3-27.7,18.4-26.9,19.9c0.8,1.5,21.5-9.5,30.1-14.2c1.5,2.6,3,5.2,4.4,7.9
	c-8.4,4.9-28.7,16.8-27.9,18.4s22-8.4,30.8-12.6c1.4,2.7,2.7,5.4,4,8.1c-8.7,4.4-29.5,15.2-28.8,16.8c0.7,1.6,22.5-7.2,31.5-10.9
	c1.2,2.8,2.4,5.5,3.5,8.3c-8.9,4-30.3,13.6-29.7,15.2c0.6,1.6,22.8-6,32.1-9.2c1.1,2.8,2,5.7,3,8.5c-9.1,3.5-31,11.9-30.5,13.5
	c0.5,1.7,23.2-4.7,32.6-7.4c0.9,2.9,1.7,5.8,2.5,8.7c-9.3,3-31.6,10.2-31.2,11.9c0.4,1.7,23.4-3.4,32.9-5.6c0.7,2.9,1.4,5.9,2,8.8
	c-9.5,2.4-32.1,8.5-31.8,10.1c0.3,1.7,23.5-2.1,33.1-3.8c0.6,3,1.1,5.9,1.6,8.9c-9.6,1.9-32.4,6.7-32.2,8.4c0.2,1.7,23.5-0.8,33.2-2
	c0.4,3,0.8,6,1.1,9c-9.7,1.4-32.8,4.9-32.7,6.6c0.1,1.7,23.4,0.5,33.2-0.2c0.3,3,0.5,6,0.7,9c-9.7,0.9-33,3.1-33,4.8
	c0,1.7,23.3,1.7,33.2,1.7c0.1,3,0.2,6,0.2,9c-9.8,0.3-33.1,1.3-33.2,3c-0.1,1.7,23.2,3,33,3.5c-0.1,3-0.1,6-0.3,9
	c-9.8-0.2-33.1-0.5-33.3,1.2c-0.2,1.7,23,4.3,32.8,5.3c-0.2,3-0.4,6-0.8,9c-9.8-0.7-33-2.3-33.3-0.6c-0.3,1.7,22.7,5.5,32.5,7.1
	c-0.4,3-0.8,6-1.3,9c-9.7-1.3-32.8-4.1-33.2-2.4c-0.3,1.7,22.4,6.8,32,8.8c-0.6,3-1.2,5.9-1.8,8.9c-9.6-1.8-32.6-5.9-33-4.2
	c-0.4,1.7,22,8,31.5,10.6c-0.7,2.9-1.5,5.8-2.3,8.7c-9.5-2.3-32.2-7.7-32.7-6c-0.5,1.6,21.6,9.2,30.9,12.3c-0.9,2.9-1.8,5.8-2.8,8.6
	c-9.4-2.8-31.7-9.4-32.3-7.8c-0.6,1.6,21.1,10.3,30.2,13.9c-1,2.8-2.2,5.6-3.3,8.4c-9.2-3.4-31.1-11.1-31.8-9.5
	c-0.7,1.5,20.4,11.4,29.4,15.5c-1.2,2.8-2.5,5.5-3.7,8.2c-9-3.9-30.5-12.8-31.2-11.3c-0.8,1.5,19.7,12.5,28.4,17.1
	c-1.3,2.7-2.7,5.4-4.1,8c-8.8-4.3-29.7-14.4-30.6-13c-0.9,1.5,18.9,13.5,27.4,18.6c-1.5,2.6-2.9,5.3-4.5,7.8
	c-8.6-4.8-28.9-16-29.8-14.6c-0.9,1.4,18.1,14.5,26.4,20.1c-1.6,2.5-3.2,5.1-5,7.6c-8.3-5.3-27.9-17.6-29-16.2
	c-1,1.4,17.3,15.5,25.2,21.5c-1.8,2.5-3.5,4.9-5.4,7.3c-8-5.8-26.9-19.1-28-17.7c-1.1,1.3,16.4,16.4,24,22.8c-1.9,2.4-3.8,4.7-5.8,7
	c-7.7-6.2-25.8-20.5-27-19.2c-1.2,1.2,15.5,17.3,22.7,24.1c-2,2.2-4.1,4.4-6.2,6.6c-7.4-6.6-24.7-21.9-25.9-20.7
	c-1.2,1.2,14.6,18.2,21.4,25.4c-2.1,2.1-4.3,4.2-6.5,6.2c-7-7-23.4-23.2-24.7-22.1c-1.3,1.1,13.6,18.9,20,26.5c-2.2,2-4.5,4-6.8,5.9
	c-6.6-7.4-22.2-24.5-23.5-23.4c-1.3,1,12.5,19.6,18.5,27.5c-2.3,1.9-4.7,3.8-7.1,5.6c-6.2-7.7-20.8-25.7-22.2-24.7
	c-1.4,1,11.5,20.3,17,28.5c-2.4,1.8-4.9,3.5-7.4,5.2c-5.7-8-19.4-26.8-20.9-25.9c-1.5,0.9,10.4,21,15.4,29.4
	c-2.5,1.6-5.1,3.2-7.7,4.8c-5.3-8.3-17.9-27.8-19.5-27c-1.5,0.8,9.2,21.5,13.8,30.3c-2.6,1.5-5.3,2.9-7.9,4.3
	c-4.8-8.5-16.4-28.8-18-28.1c-1.5,0.7,8.1,22.1,12.2,31c-2.7,1.3-5.4,2.6-8.2,3.9c-4.3-8.8-14.8-29.7-16.4-29
	c-1.6,0.6,6.9,22.6,10.5,31.7c-2.8,1.2-5.6,2.3-8.4,3.4c-3.8-9-13.2-30.5-14.8-29.9c-1.6,0.6,5.7,23.1,8.8,32.3
	c-2.8,1-5.7,2-8.5,2.9c-3.3-9.2-11.5-31.2-13.2-30.7c-1.7,0.5,4.4,23.3,7,32.7c-2.9,0.9-5.8,1.7-8.7,2.5
	c-2.8-9.3-9.8-31.8-11.5-31.5c-1.7,0.4,3.2,23.5,5.2,33.1c-2.9,0.7-5.8,1.4-8.8,2c-2.3-9.4-8.1-32.4-9.8-32.1
	c-1.7,0.3,1.9,23.7,3.4,33.3c-3,0.5-5.9,1.1-8.9,1.6c-1.8-9.5-6.3-32.8-8-32.6c-1.7,0.2,0.6,23.8,1.6,33.5c-3,0.4-6,0.8-9,1.1
	c-1.2-9.6-4.5-33.1-6.2-33c-1.7,0.1-0.7,23.8-0.2,33.5c-3,0.2-6,0.5-9,0.6c-0.7-9.6-2.7-33.3-4.4-33.3c-1.7,0-2,23.7-2,33.5
	c-2.1,0-4.2,0.2-6.4,0.2c-0.9,0-1.8-0.1-2.7-0.1c-0.2-9.7-0.9-33.4-2.6-33.5c-1.7-0.1-3.3,23.6-3.9,33.3c-3-0.1-6-0.2-9-0.4
	c0.3-9.6,0.9-33.4-0.8-33.6c-1.7-0.2-4.6,23.5-5.7,33.1c-3-0.3-6-0.6-9-0.9c0.8-9.6,2.8-33.3,1-33.6c-1.7-0.3-5.9,23.3-7.5,32.8
	c-3-0.4-6-0.9-8.9-1.4c1.4-9.5,4.6-33.2,2.9-33.5c-1.7-0.4-7.2,23-9.3,32.4c-3-0.6-5.9-1.3-8.8-1.9c1.9-9.4,6.4-32.9,4.7-33.3
	c-1.7-0.5-8.4,22.7-11,31.9c-2.9-0.7-5.8-1.6-8.7-2.4c2.4-9.3,8.2-32.5,6.5-33.1c-1.6-0.6-9.6,22.2-12.8,31.2
	c-2.9-0.9-5.7-1.9-8.5-2.9c2.9-9.1,9.9-32.1,8.3-32.7c-1.6-0.6-10.8,21.6-14.4,30.5c-2.8-1.1-5.6-2.2-8.4-3.3
	c3.4-8.9,11.7-31.5,10.1-32.2c-1.6-0.7-12,21-16.1,29.6c-2.8-1.2-5.5-2.4-8.2-3.7c3.8-8.7,13.4-30.8,11.9-31.7
	c-1.5-0.8-13.1,20.3-17.7,28.7c-2.7-1.4-5.4-2.7-8-4.2c4.3-8.5,15-30.1,13.6-31s-14.2,19.5-19.2,27.7c-2.6-1.5-5.2-3-7.7-4.6
	c4.8-8.2,16.6-29.2,15.2-30.2c-1.4-1-15.2,18.7-20.7,26.6c-2.5-1.7-5-3.3-7.5-5.1c5.2-8,18.2-28.2,16.8-29.2s-16.3,17.9-22.1,25.5
	c-2.4-1.8-4.8-3.6-7.2-5.5c5.6-7.7,19.7-27.2,18.4-28.3c-1.3-1.1-17.3,17-23.5,24.3c-2.3-1.9-4.6-3.9-6.8-5.9
	c6-7.4,21.2-26.1,19.9-27.3c-1.2-1.2-18.2,16.1-24.8,22.9c-2.2-2-4.4-4.1-6.5-6.2c6.4-7,22.6-24.9,21.4-26.2
	c-1.2-1.3-19,15.1-26,21.5c-2.1-2.2-4.2-4.3-6.2-6.5c6.8-6.6,23.9-23.7,22.8-25c-1.1-1.3-19.8,14-27.1,20.1c-2-2.3-4-4.5-5.9-6.8
	c7.1-6.2,25.2-22.4,24.2-23.7c-1-1.4-20.6,12.9-28.2,18.6c-1.9-2.4-3.7-4.7-5.5-7.2c7.4-5.8,26.4-21,25.5-22.4S89,717.7,81.1,722.9
	c-1.7-2.5-3.4-4.9-5.1-7.5c7.7-5.4,27.5-19.5,26.6-21c-0.9-1.5-22,10.7-30.2,15.5c-1.6-2.5-3.1-5.1-4.6-7.7c8-5,28.6-18,27.8-19.5
	c-0.8-1.6-22.7,9.5-31,13.8c-1.4-2.6-2.8-5.3-4.2-8c8.2-4.5,29.6-16.4,28.8-18c-0.7-1.6-23.3,8.3-31.8,12.1
	c-1.3-2.7-2.5-5.5-3.7-8.2c8.4-4,30.5-14.8,29.8-16.4c-0.6-1.6-23.7,7-32.4,10.4c-1.1-2.8-2.2-5.6-3.3-8.4
	c8.6-3.5,31.3-13.1,30.7-14.8c-0.5-1.7-24.1,5.8-33,8.6c-1-2.8-2-5.7-2.9-8.5c8.7-3,32-11.4,31.5-13.1c-0.5-1.7-24.4,4.4-33.4,6.8
	c-0.8-2.9-1.7-5.8-2.5-8.7c8.8-2.6,32.6-9.6,32.2-11.4c-0.4-1.7-24.6,3.1-33.7,5c-0.7-2.9-1.4-5.8-1.9-8.8c9-2.1,33.1-7.8,32.8-9.6
	c-0.3-1.7-24.8,1.8-34,3.1c-0.5-3-1-5.9-1.4-8.9c9.1-1.6,33.4-6,33.3-7.8c-0.2-1.8-24.8,0.4-34.1,1.2c-0.4-3-0.7-6-0.9-9
	c9.2-1.1,33.7-4.2,33.6-5.9c-0.1-1.8-24.8-1-34.1-0.6c-0.2-3-0.3-6-0.4-9c9.2-0.6,33.9-2.3,33.9-4.1c0-1.8-24.8-2.3-34.1-2.5
	c0-0.9-0.1-1.8-0.1-2.8c0-2.1,0.1-4.2,0.2-6.3c9.2-0.1,33.9-0.5,34.1-2.2c0.1-1.8-24.7-3.7-33.9-4.3c0.1-3,0.4-6,0.6-9
	c9.2,0.4,33.9,1.4,34.1-0.4c0.2-1.8-24.5-5-33.6-6.2c0.3-3,0.7-6,1.1-8.9c9.2,0.9,33.8,3.2,34.1,1.5c0.3-1.8-24.3-6.4-33.3-8
	c0.5-3,1-5.9,1.6-8.9c9.1,1.4,33.6,5.1,34,3.3c0.4-1.7-23.8-7.7-32.8-9.8c0.6-2.9,1.3-5.9,2-8.8c9,1.9,33.3,6.9,33.8,5.2
	c0.5-1.7-23.4-9-32.2-11.6c0.8-2.9,1.6-5.8,2.5-8.7c8.8,2.4,32.9,8.7,33.5,7.1c0.6-1.7-22.8-10.2-31.5-13.3c0.9-2.8,1.9-5.7,2.9-8.5
	c8.7,2.9,32.4,10.5,33.1,8.9c0.7-1.6-22.1-11.4-30.7-15c1.1-2.8,2.2-5.6,3.4-8.4C61,450.7,84.3,459.6,85,458
	c0.8-1.6-21.5-12.6-29.8-16.7c1.2-2.7,2.5-5.5,3.9-8.1c8.4,3.8,31,14,31.9,12.4c0.8-1.5-20.7-13.7-28.9-18.2
	c1.4-2.7,2.8-5.3,4.3-7.9c8.2,4.3,30.2,15.6,31.1,14.1c0.9-1.5-20-14.8-27.8-19.8c1.5-2.6,3.1-5.1,4.8-7.6
	c8,4.8,29.2,17.2,30.2,15.8c1-1.5-19.1-15.9-26.7-21.3c1.7-2.5,3.5-4.9,5.2-7.4c7.7,5.2,28.2,18.8,29.3,17.4S94.3,393.7,87,388
	c1.8-2.4,3.7-4.8,5.6-7.1c7.4,5.6,27.2,20.3,28.3,19c1.2-1.3-17.1-17.8-24.1-24c1.9-2.3,3.9-4.6,5.9-6.8c7.1,6,26,21.7,27.2,20.5
	s-16.1-18.7-22.8-25.3c2-2.2,4.1-4.4,6.2-6.5c6.8,6.4,24.8,23.1,26.1,21.9c1.3-1.2-15-19.5-21.4-26.5c2.2-2.1,4.4-4.1,6.6-6.1
	c6.4,6.8,23.5,24.4,24.8,23.3c1.4-1.1-14-20.3-19.9-27.6c2.3-2,4.6-3.9,6.9-5.8c6.1,7.1,22.1,25.6,23.5,24.6
	c1.4-1-12.9-21-18.4-28.6c2.4-1.8,4.8-3.6,7.3-5.3c5.7,7.4,20.7,26.8,22.1,25.9c1.5-1-11.7-21.8-16.8-29.6c2.5-1.7,5-3.3,7.5-4.9
	c5.3,7.7,19.2,27.9,20.7,27c0.7-0.4-1.6-5.4-4.7-11.4l-13.4-24.5c-84.4,51-141,143.8-141,249.5C23.4,720.1,153.8,850.7,314.2,850.7"
	/>
<path class="st0" d="M234.7,231.9c0,43.9,35.6,79.5,79.4,79.5s79.4-35.7,79.4-79.5s-35.6-79.5-79.4-79.5S234.7,188,234.7,231.9
	 M243.4,232.9h18.5c0.2,7.4,1.9,14.4,4.9,20.8l-16,10.4c-4.8-9.4-7.6-20-7.8-31.2 M253.1,268.6l15.9-10.4c4,6.9,9.6,12.8,16.2,17.3
	l-9.4,16.5C266.6,286,258.8,278,253.1,268.6 M312.4,303.2c-11.7-0.3-22.7-3.4-32.3-8.7l9.4-16.5c6.9,3.7,14.7,5.9,22.9,6.2V303.2z
	 M270,231.9c0-7,1.7-13.6,4.6-19.5c4.5,3.6,13.4,11,16.5,13.9c3.4,3.2,7.3,4.7,10.3,5.4c0,0.1,0,0.1,0,0.2c0,7.1,5.7,12.8,12.8,12.8
	s12.8-5.7,12.8-12.8c0-0.1,0-0.2,0-0.3c2.9-0.8,6.6-2.3,9.8-5.2c3.2-3,12.6-10.7,16.9-14.2c3,6,4.7,12.7,4.7,19.8
	c0,24.4-19.8,44.2-44.2,44.2S270,256.2,270,231.9 M317.4,302.9v-18.8c8.2-0.5,15.9-2.8,22.6-6.6l9.4,16.5c-9.5,5.4-20.4,8.6-32,9.1
	 M353.3,291.5l-9.4-16.6c6.4-4.5,11.8-10.4,15.7-17.2c0,0,0,0,0,0l15.9,10.3C370,277.4,362.4,285.5,353.3,291.5 M377.8,263.6
	l-15.6-10.1c-0.2-0.1-0.3-0.1-0.5-0.2c2.8-6.2,4.5-13.1,4.6-20.3h19C385.2,243.9,382.5,254.3,377.8,263.6 M385.4,227.9h-19.2
	c-0.5-7.7-2.7-15-6.2-21.4c4.8-3.8,12-9.5,11.7-9.4c0.2-0.2-8.2,3.4-13.8,5.8c-3.7-5.7-8.5-10.6-14-14.4l9.4-16.6
	c18.4,12.2,30.7,32.6,31.9,56 M317.4,160.6c11.6,0.5,22.6,3.7,32.1,9.2l-9.4,16.5c-6.8-3.9-14.5-6.2-22.7-6.7L317.4,160.6
	L317.4,160.6z M350.3,206.6c-5.1,2.1-16.4,6.7-20.5,8.1c-4.2,1.4-7.2,3.9-9.3,6.1c-1.9-1.1-4-1.8-6.4-1.8c-2.5,0-4.7,0.7-6.7,2
	c-2.1-2.2-5.2-4.9-9.5-6.3c-4-1.4-14.8-5.8-20.1-8c8-11.5,21.3-19.1,36.3-19.1S342.3,195.2,350.3,206.6 M312.4,160.9v18.7
	c-8.3,0.3-16.1,2.5-23,6.2l-9.4-16.5c9.7-5.3,20.7-8.4,32.4-8.7 M275.7,171.5l9.4,16.5c-5.9,4-11,9.2-14.9,15.2
	c-5.6-2.4-14.5-6.2-14.2-6c-0.3-0.1,7.2,5.9,12,9.7c-3.4,6.4-5.5,13.5-6,21.1h-19C244.2,204.2,256.9,183.6,275.7,171.5"/>
<path class="st0" d="M304.4,135.9h-0.2c0.7-1.1,2-3.1,1.9-6.1c-0.3-6.1,0.1-15.3-1.8-20.4c-0.9,0.9-1.3,6.5-1.5,8
	c-0.3,2.1-0.3,5.5-0.5,8.5c-0.2,3.7-0.2,7.7,1,9.8c0.5-0.1,0.5,0.2,0.7,0.3"/>
<path class="st0" d="M189.6,341.4l2.1-1.3c0.3-0.2,36.1-21.4,76.9-28.2l5.4-0.9l-4.7-2.7c-28.3-16.2-42.8-42.4-42.8-75.4
	c0-26,12.5-53.9,32.8-70.1l-0.6-1.1c-8.4,0-110.4,47-69.8,177.4L189.6,341.4L189.6,341.4z M263.4,309.2c-7.1,1.4-14.1,3.2-20.7,5.1
	c3.2-7.4,2.2-16.7-0.7-23.8C248,297.6,255.1,303.9,263.4,309.2 M235.6,281.5c-4.4-3.3-8.8-5.3-12.9-6.5c-4.7-2.2-12.9-7.1-18.3-12.5
	c-12.6-12.7-5.6-24.1-3.2-26.1c7.2-5.8,14-1.2,14.5-0.7c0.6,0.7,2.3,2.2,2.5,4.4c0.3,2.7-1.1,7.5-4.9,6.5c-1.8-0.5-1.2-3.1-2.4-4
	c-1.4-1-3.2-1.2-4.6,0.9c-0.3,0.5-0.9,1.4-1,2c-1.1,5.3,6,8.6,9.2,8.2c3.9-0.4,7.4-3.4,8.5-6.9c0.1-0.3,0.2-0.8,0.3-1.3
	C224.9,258.8,229,270.9,235.6,281.5 M222.7,237.5c-0.8-2.5-2.5-5-5.4-7.2c-0.2-0.1-1.3-0.8-3.1-1.5c2.7-1.7,5.4-4,7.5-6.6
	c0.4-0.5,1-1.4,1.2-1.9c0.2-0.3,0.3-0.7,0.5-1c-0.6,4.3-0.9,8.8-0.9,13.6C222.6,234.4,222.6,235.9,222.7,237.5 M237.6,182.9
	c-6.3,10.1-10.5,19.3-12.8,29.3c0-0.2,0-0.4-0.1-0.6c-0.1-0.3-0.5-2.2-1.1-3.1c-0.3-0.5-0.9-1.4-1.3-1.9c-0.4-0.4-2.1-1.8-2.6-2
	c-2.5-1.2-4.7-1.4-6.4-1.3C222.6,192.9,231.9,186.3,237.6,182.9 M205.2,213.4c0.4,2,2.1,4,4.2,4.6c1.8,0.5,6.4-0.7,6.3-4
	c0-0.4-0.2-1-0.4-1.3c-0.6-1.4-1.8-1.4-2.7-1c-0.8,0.4-0.7,1.9-1.8,2.1c-1.7,0.3-2.8-2.5-2.1-4c0.4-1,1.3-1.5,1.8-1.8
	c0.3-0.3,4.4-2.6,8,1.6c1.2,1.4,5.1,10.6-14.6,18.1c-0.3,0.1-0.5,0.3-0.8,0.4c-0.5,0.1-1,0.2-1.5,0.3c-0.9,0.3-4.7,2-5.4,2.6
	c-0.2,0.1-0.9,0.6-1.7,1.4C197.5,225.3,201.2,219,205.2,213.4 M184.9,297.2c-1.8-18.7-0.1-34.9,3.7-48.6c0.3,1.4,0.7,2.9,1.3,4.4
	c0.3,0.8,6.1,12.9,19.5,20.7c-0.7,0.1-1.3,0.2-1.9,0.3c-12.1-4.6-19.4-16.6-19.4-16.6c1.9,8.9,9,15.9,12.5,18.9
	c-4.5,2-9.2,5.2-12,9.6c-1.8,2.7-3.1,7.4-3.6,10.2C184.9,296.5,184.9,296.9,184.9,297.2 M189.4,314.1c0.8,1,4.4,4.8,5.4,5.5
	c1.8,1.5,4,2.7,5.8,3.4c4.2,1.5,12,1.3,16.3-2.5c2.5-2.2,4.6-6.8,5.2-9.4c0.6-2.8,0.3-6.6-0.4-9.3c-0.4-1.5-1.5-3.8-2.4-5.1
	c-0.8-1-5.9-6.5-13.6-3.1c-4.1,1.8-6.9,6-7.2,8.5c0,0.5-0.4,1.6-0.2,2.3c0.2,1.5,0.9,1.6,1.8,3.1c1.8,1.2,4.2,1.2,6-0.7
	c1.2-1.3,1-3.5,2.4-4.4c1-0.7,2.8-0.6,3.6,0.1c5.1,3.8,2.3,8.8,1.7,10c-1.4,2.7-4.6,5.6-7.2,5.7c-1.3,0.1-3-0.4-4.1-0.3
	c-3.2-1.3-6.4-3.8-9.2-7.6c-1.7-2.8-2.7-5.9-2.9-6.7c-0.9-3.1,0.2-9.2,0.4-9.6c1.5-3.9,4.8-7,9.2-9.2c21.2-10.7,41.4,9.4,30.6,33.4
	c-1.2,0.4-2.5,0.9-3.6,1.3c1.5-3.2,7-16.5,1.1-25.2c0,0,2.5,20.8-10.9,29l0.1,0c-12,4.9-21,9.4-24.8,11.6
	c-2.9-9.4-4.9-18.3-6.2-26.7C187.2,310.7,188.4,312.8,189.4,314.1"/>
<path class="st0" d="M324.4,133.9h-0.2c0.7-1.1,2.1-3.1,1.9-6.1c-0.3-6.1,0.1-15.3-1.8-20.4c-0.9,0.9-1.3,6.5-1.5,8
	c-0.3,2.1-0.3,5.5-0.5,8.5c-0.2,3.7-0.2,7.7,1,9.8c0.5-0.1,0.5,0.2,0.7,0.3"/>
<path class="st0" d="M144.1,389.4c-45.4,45.5-70.4,106-70.4,170.3s25,124.8,70.5,170.3c45.4,45.5,105.8,70.6,170.1,70.6
	s124.7-25.1,170.1-70.6c45.4-45.5,70.5-106,70.5-170.3s-25-124.8-70.5-170.3c-45.4-45.5-105.8-70.6-170.1-70.6
	S189.5,343.9,144.1,389.4 M355.9,410c26.5,1.5,47.8,12,61.7,26c13.3,13.5,15.5,34.4,32.9,47.7c-14.8,9.8-14.6,29.7-21.7,45.6
	c-7.2,16-20.8,22.7-36.4,30.2c18.5,7,35.6,17.9,42,37.2c4.7,14.1,7.3,28.8,18.9,39.3c-11.9,7.2-17,24.5-23.8,35.8
	c-14,22.9-39.7,37.8-77.8,37.9c-15.2,0-28.9-2.4-42-5.6c-18.6-4.5-59.7-13.9-77.5-15c-10-0.6-15.2,0.5-25.2,8.9
	c-1.4-3.6-9.8-7.1-14.4-6.5c4.5-9.1,11.9-23.5,13.3-41.4c1.5-19.5,2.1-50,0-69.5c-1.2-11.5-8.3-21-16.1-26
	c18.7-10.6,18.5-50.7,16.1-84.2c-1.2-17.5-8.2-32.5-14-41.4c4.5,0,13.5-6.2,15.2-9c7.3,3,14.1,11.2,28.2,10.7c18-0.6,21.2-2,39.9-6
	C302.4,419,321.6,408.1,355.9,410"/>
<path class="st0" d="M333.4,130.9h0.3c0.7-1.1,2.1-3.2,1.9-6.1c-0.3-6.1,0.1-15.3-1.8-20.4c-0.9,0.9-1.3,6.6-1.5,8
	c-0.3,2.1-0.3,5.5-0.5,8.5c-0.2,3.7-0.2,7.7,1,9.8c0.5-0.1,0.5,0.2,0.7,0.3"/>
<path class="st0" d="M172.9,249.9h-0.2c0,0,0,0.1,0,0.1L172.9,249.9z"/>
<path class="st0" d="M455.9,250.1c0,0,0-0.1,0-0.1h-0.2L455.9,250.1L455.9,250.1z"/>
</svg>
