<svg class="nav_logo" fill="none" viewBox="0 0 247 95" width="100%" xmlns="http://www.w3.org/2000/svg"><g clip-path="url(#clip0_5_5)"><path d="M126.88 29.51H126.51L123.22 59.02H130.62L126.88 29.51ZM126.88 29.51H126.51L123.22 59.02H130.62L126.88 29.51ZM101.3 23.7H96.28V41.84H101.47C103.41 41.84 104.38 41.4 104.38 39.02V26.87C104.38 24.67 104.03 23.7 101.3 23.7ZM126.88 29.51H126.51L123.22 59.02H130.62L126.88 29.51ZM126.88 29.51H126.51L123.22 59.02H130.62L126.88 29.51ZM101.3 23.7H96.28V41.84H101.47C103.41 41.84 104.38 41.4 104.38 39.02V26.87C104.38 24.67 104.03 23.7 101.3 23.7ZM234.24 0H12C5.37 0 0 5.37 0 12V82.09C0 88.72 5.37 94.09 12 94.09H234.24C240.87 94.09 246.24 88.72 246.24 82.09V12C246.24 5.37 240.87 0 234.24 0ZM42.46 78.03H20.62V15.78H28.9V70.2H42.46V78.03ZM67.58 78.03H46.98V15.86H67.5V23.7H55.35V41.84H66.26V49.5H55.35V70.19H67.58V78.03ZM112.66 37.97C112.66 46.69 111.96 49.51 104.38 49.51H96.19V78.04H88.18V15.87H104.12C112.04 15.87 112.66 19.83 112.66 26.53V37.97ZM133.23 78.03L131.65 66.58H122.32L120.91 78.03H112.99L121.71 15.87H131.64L141.24 78.03H133.23ZM171.25 35.19H163.06V28.81C163.06 26.79 163.06 22.38 157.95 22.38C152.84 22.38 152.75 26.96 152.75 30.13V64.47C152.75 67.99 152.75 71.69 157.77 71.69C162.79 71.69 162.97 67.64 162.97 63.85V56.22H171.24V62.79C171.24 69.84 169.39 78.81 157.59 78.81C153.01 78.81 148.7 77.05 146.41 73.26C144.47 70.09 144.47 66.3 144.47 63.04V33.01L144.49 33.04C144.49 27.58 144.49 15.26 158.4 15.26C171.25 15.26 171.25 26.09 171.25 30.49V35.19ZM201.64 23.71H191.95V78.04H183.59V23.71H174.17V15.87H201.64V23.71ZM225.61 78.04H205.01V15.87H225.53V23.71H213.38V41.85H224.3V49.51H213.38V70.2H225.61V78.04ZM126.51 29.51L123.22 59.02H130.62L126.88 29.51H126.51ZM101.3 23.7H96.28V41.84H101.47C103.41 41.84 104.38 41.4 104.38 39.02V26.87C104.38 24.67 104.03 23.7 101.3 23.7ZM101.3 23.7H96.28V41.84H101.47C103.41 41.84 104.38 41.4 104.38 39.02V26.87C104.38 24.67 104.03 23.7 101.3 23.7ZM126.88 29.51H126.51L123.22 59.02H130.62L126.88 29.51ZM126.88 29.51H126.51L123.22 59.02H130.62L126.88 29.51ZM101.3 23.7H96.28V41.84H101.47C103.41 41.84 104.38 41.4 104.38 39.02V26.87C104.38 24.67 104.03 23.7 101.3 23.7Z" fill="currentColor"></path></g><defs><clipPath id="clip0_5_5"><rect fill="currentColor" height="94.09" width="246.24"></rect></clipPath></defs></svg>