<svg height="40.88" viewBox="0 0 112.72 40.88" width="112.72" xmlns="http://www.w3.org/2000/svg" xmlns:xlink="http://www.w3.org/1999/xlink"><defs><clipPath id="header-bea96e10-2f04-4641-8877-6c4067f97f1c" transform="translate(-184.49 -2.83)"><rect fill="none" height="40.87" width="112.72" x="184.49" y="2.83"></rect></clipPath><clipPath id="header-b71a3cb1-b8c1-40ad-8805-8a11679baae0" transform="translate(-184.49 -2.83)"><rect fill="none" height="62.73" width="325.98"></rect></clipPath></defs><g data-name="Layer 2" id="header-ba419461-9c12-48cb-b523-0b2c27dcc720"><g data-name="Layer 1" id="header-ba101774-56b7-43a1-97c4-223008d84d00"><g clip-path="url(#header-bea96e10-2f04-4641-8877-6c4067f97f1c)"><path d="M246.07,12.8h0m8.38-1.28V12a4.41,4.41,0,0,0,.52,2.07,15.78,15.78,0,0,0-2.59,0,14.42,14.42,0,0,0-2.06.3,4.63,4.63,0,0,0-.65-.6,4.9,4.9,0,0,0-3.43-1h-.14l-3.73.54-.54.08a4.71,4.71,0,0,0-5.31-1.32h.06l-1.4.53-1.73.68c-.05-1-.11-2.13-.11-2.2V9.62a4.5,4.5,0,0,0-4.52-4.46h-.15l-7,.52v0a4.48,4.48,0,0,0-4.24,4.43v.76A4.34,4.34,0,0,0,217.9,13c-.37,0-.73-.07-1.11-.07a11,11,0,0,0-3.18.49c0-.24,0-.54,0-.54C213.64,9.9,212,7,209,5c-2.78-1.94-6.8-2.59-11-1.79A17,17,0,0,0,187,10a14.1,14.1,0,0,0-2.53,7.74,10.68,10.68,0,0,0,.61,3.6,12.48,12.48,0,0,0,6.2,6.8,14,14,0,0,0-.92,1.86,12.54,12.54,0,0,0-1,4.72,8.91,8.91,0,0,0,2,5.78c2.23,2.71,5.88,3.8,10,3a15.24,15.24,0,0,0,10.9-8.4,10.84,10.84,0,0,0,10.27-.68,4.48,4.48,0,0,0,3,1.16h.16l6.44-.53v0a4.45,4.45,0,0,0,1.56-.41l2.93.63a5.71,5.71,0,0,0,5-1.07,8,8,0,0,0,.73.52,8.94,8.94,0,0,0,8,.46c.36-.15.68-.3,1-.44a7.18,7.18,0,0,0,5.95,1.2c1-.21,1.84-.41,2.61-.63a4.53,4.53,0,0,0,1.82.46h.16l5.54-.28a4.26,4.26,0,0,0,2,.64h.16l6.29-.1a4.34,4.34,0,0,0,1.63-.32,9,9,0,0,0,5.2-.54c.36-.15.68-.3,1-.44a7.18,7.18,0,0,0,5.95,1.2c2.9-.62,6.19-1.33,7.28-4.19a4.76,4.76,0,0,0,.29-1.61,4.68,4.68,0,0,0-.95-2.79,6.85,6.85,0,0,0-.77-.91,26.09,26.09,0,0,1-.44-2.95c-.75-7-3.84-9.79-10.31-9.38a17.72,17.72,0,0,0-6.12,1.65c0-1.57.05-3.09.05-3.13s.09-1.45.09-1.45v-.29a4.41,4.41,0,0,0-1.1-2.91,4.6,4.6,0,0,0-3.13-1.54h-.14l-6.92.07a4.57,4.57,0,0,0-1.33.22,4.17,4.17,0,0,0-.49-.08h-.14l-6.72.29a4.56,4.56,0,0,0-3,1.23,4.4,4.4,0,0,0-1.39,3.07Z" fill="#8f8d8d" transform="translate(-184.49 -2.83)"></path></g><g clip-path="url(#header-b71a3cb1-b8c1-40ad-8805-8a11679baae0)"><path d="M294.92,28.27a7,7,0,0,0-.75-.86l-.14-.14a13.37,13.37,0,0,1-.64-3.67c-.66-6.1-3-8.24-8.55-7.89a15.25,15.25,0,0,0-7.94,3c.05-2.9.1-6.16.1-6.2s.1-1.49.1-1.49v-.18A2.73,2.73,0,0,0,276.41,9a2.88,2.88,0,0,0-2-1h-.08l-6.86.06a3,3,0,0,0-1.2.25,3,3,0,0,0-.67-.11h-.09l-6.65.29h.05A2.91,2.91,0,0,0,257,9.3a2.77,2.77,0,0,0-.87,1.91l0,.71V12a2.78,2.78,0,0,0,1.95,2.61c0,.3.07,1.14.13,2.29-1.33-1-3.19-1.36-5.72-1.2a14,14,0,0,0-2.85.5,3.3,3.3,0,0,0-3.39-1.75l-5.23.77a3,3,0,0,0-3.89-1.57l-5.23,2c-.1-2.19-.22-4.49-.22-4.55V9.62a2.82,2.82,0,0,0-2.85-2.79h-.09l-7,.52h.17a2.83,2.83,0,0,0-2.86,2.8v.75a2.8,2.8,0,0,0,2.12,2.69c0,.27.1,1.08.2,2.2a9.22,9.22,0,0,0-4.56-1.21A9.32,9.32,0,0,0,210.4,17a5.74,5.74,0,0,0,1.54-3.47q0-.33,0-.66c0-2.41-1.4-4.75-3.93-6.52s-6-2.24-9.75-1.52a15.33,15.33,0,0,0-9.88,6.06,12.44,12.44,0,0,0-2.25,6.82,9.25,9.25,0,0,0,.51,3c.73,2.07,2.58,4.81,7.15,6.71a10,10,0,0,0-1.89,3.13,11,11,0,0,0-.85,4.1,7.27,7.27,0,0,0,1.61,4.71c1.83,2.22,4.89,3.1,8.39,2.42a13.72,13.72,0,0,0,10.39-9.12A9.26,9.26,0,0,0,222.93,32a2.8,2.8,0,0,0,2.62,1.82h.09l6.37-.52h-.18a2.83,2.83,0,0,0,1.85-.7l.11.24,3.22.69a4.07,4.07,0,0,0,4.62-1.9,5.11,5.11,0,0,0,1.64,1.56,7.19,7.19,0,0,0,6.42.34c.76-.32,1.38-.63,1.9-.89a5.47,5.47,0,0,0,5.33,1.56,28.83,28.83,0,0,0,3.17-.82,2.77,2.77,0,0,0,1.66.61h.09l6.05-.32a2.77,2.77,0,0,0,1.65.68h.09l6.24-.1a2.79,2.79,0,0,0,1.43-.39,7.32,7.32,0,0,0,4.76-.34c.76-.32,1.38-.63,1.9-.89a5.47,5.47,0,0,0,5.33,1.56c3.1-.67,5.35-1.28,6.06-3.16a2.91,2.91,0,0,0-.43-2.81m-84.71-11.1h0" fill="#fff" transform="translate(-184.49 -2.83)"></path><path d="M216.8,16.8a7.49,7.49,0,0,0-7.31,7.67c0,.1,0,.2,0,.3C208.45,22,206,20.53,203,18.21c-4-3.15-2.75-6.11-.94-7.5s1.81,1,1.81,1.17.58,5.68,3.51,4.45,3.58-5.25-.61-8.18S193.67,7,190.27,12.1,187.63,23.2,196.2,26s5.72,6,4,8.61-4.27.87-1.38-1.59.49-4.4.49-4.4S196.2,26,194,31.41s1.08,9.3,6.65,8.21A11.62,11.62,0,0,0,210,28.34c0-.37,0-.71,0-1a7.32,7.32,0,0,0,6.79,4.84,7.5,7.5,0,0,0,7.3-7.67,7.49,7.49,0,0,0-7.3-7.67m-.11,8.14c-1,0-1.88-1.18-1.88-2.62s.84-2.63,1.88-2.63,1.88,1.18,1.88,2.63-.84,2.62-1.88,2.62m51.16,4.77c-1.48.14-1.46-1-1.46-1l-.3-16.22,0-1.5a.57.57,0,0,0-.58-.55l-6.58.29a.57.57,0,0,0-.61.52l0,.71a.56.56,0,0,0,.58.55c1.42.16,1.31,1.11,1.31,1.11l1.06,17.6a.53.53,0,0,0,.53.55l6-.3a.54.54,0,0,0,.55-.52l0-.72a.55.55,0,0,0-.53-.55m-21-11a1,1,0,0,0,.88-1.19,1,1,0,0,0-1.18-.88l-5.6.82a1,1,0,0,0,.3,2.07c1.07.36.33,1.55.33,1.55l-1.13,2.61L238.05,18l.67-.26a.79.79,0,0,0,.49-1l-.23-.6a.81.81,0,0,0-1.06-.41l-8.11,3.16-.38-7.7V9.62a.59.59,0,0,0-.62-.56l-6.92.51a.59.59,0,0,0-.62.56v.76a.59.59,0,0,0,.62.56c1.51.12,1.42,1.12,1.42,1.12L225,31.06a.57.57,0,0,0,.57.57l6.28-.51a.57.57,0,0,0,.57-.57V29.8a.56.56,0,0,0-.57-.56c-1.55.19-1.56-1-1.56-1l-.35-7.07a.29.29,0,0,0,.1,0,1.93,1.93,0,0,1,1.13.92c.56.84,4.2,8.86,4.2,8.86l2.21.47a1.9,1.9,0,0,0,2.36-1.25c.84-1.81,4.18-8.63,4.18-8.63a5.37,5.37,0,0,1,2.76-2.79m11.95,5.1c-.58-5.33-2.23-6.16-6.2-5.91s-9.39,3.15-7.37,5.28c1.29,1.37,3.36-.57,3.36-.57s3.39-3.18,3.68-1.36-.58,1.82-3.22,2.52S242.83,26.18,243,29s3.48,3.56,5.8,2.57,3.4-1.89,3.71-1.36a3.3,3.3,0,0,0,3.93,1.89c2.69-.58,5.21-1.24,4.3-2.48s-1.36-.41-1.94-5.74m-6.22,2.26c-.4,2.44-2.08,2.46-2.68,2.12s-.54-1.42,1.21-3,1.47.86,1.47.86m40.53,3.48c-.91-1.24-1.36-.41-1.94-5.74S289,17.68,285,17.93s-9.39,3.15-7.37,5.28c1.3,1.37,3.36-.57,3.36-.57s3.39-3.18,3.68-1.36-.58,1.82-3.22,2.52-6.23,2.38-6.05,5.16a3,3,0,0,0,.36,1.27c-1.28,0-1.22-1.06-1.22-1.06l.25-16.77.1-1.54a.6.6,0,0,0-.58-.6l-6.8.07a.59.59,0,0,0-.65.51l0,.74a.58.58,0,0,0,.58.59c1.46.22,1.31,1.19,1.31,1.19l.48,18.22a.55.55,0,0,0,.52.59l6.19-.1a.55.55,0,0,0,.59-.52l0-.44a4.86,4.86,0,0,0,4.69.42c2.31-1,3.41-1.89,3.71-1.36a3.3,3.3,0,0,0,3.93,1.89c2.69-.58,5.21-1.24,4.3-2.48M285,26.1c-.39,2.44-2.07,2.46-2.68,2.12s-.54-1.42,1.21-3,1.47.86,1.47.86" fill="#fdc300" transform="translate(-184.49 -2.83)"></path></g></g></g></svg>