<svg width="150" height="24" fill="none" xmlns="http://www.w3.org/2000/svg"><g clip-path="url(#clip0_7_151)" fill-rule="evenodd" clip-rule="evenodd"><path d="M144.48.26v.121h.057v.061h.119l.12.182.179-.061v.061h.057v.24l.179.123c.075.123 0 .256.06.422l.118.061v.361h-.06v.123l-.297.179.061.181h-.123c.032.17.115.343.057.425-.057.082-.158.2-.236.302l-.178-.062v.062c-.118.035-.151.025-.252.058v.182l-1.068.061v-.061h-.118v-.059c-.174-.036-.204.21-.297.18l-.118-.18c-.131-.054-.166.059-.239.059v-.059l-.178.059c-.018 0-.101-.202-.179-.182l-.058.123h-.118v.12l-.178-.061c-.066.046.02.082-.061.061v-.061l-.296-.059v.059c-.101.064-.154.161-.357.12v-.059l-.237.06v-.06l-.12.06h-.043v-.06c-.111-.018-.118.06-.118.06a.101.101 0 01-.071-.008.105.105 0 01-.05-.052h-.058v.06a.102.102 0 01-.12-.06l-.237.06v.122l-.178-.061-.118-.182-.179.061a.135.135 0 00-.118-.061c-.083 0 .023.061-.06.061-.083 0-.214-.125-.357-.061-.038.061-.078.12-.118.182-.041.061-.232-.18-.237-.182a.142.142 0 00-.178.061h-.065v-.061h-.061v.061h-.118v.06h-.118l-.06.122c-.076.036 0-.046-.058-.061h-.061v.06h-.475v.06a.098.098 0 01-.118-.059l-.118.059h-.06v-.06a.101.101 0 00-.118.059c-.099.019-.106-.055-.119-.058a.102.102 0 00-.071.007.103.103 0 00-.049.052l-.179-.06v-.122l-.533.062-.06-.062v.062h-.118v.06l-.237-.06V3.4h-.06v.062h-.226v.06h-.058v-.06l-.251.06v.121h-.118v.12l-.119.062v.966h.058c.056.197-.075.284-.058.422h.058c0 .103-.123.358-.058.545h.058v.11h.061v.302h-.061v.422h.061v.061l-.119.061c-.078.215.096.376.119.484l-.061.24h.061V7.5h-.061l.061.182h-.061c-.034.22-.034.443 0 .662h.061v.082h.296c.068-.069 0-.023.118-.061.046-.166.018-.133.179-.18v-.06h.239c.05.066.206.13.236.181v.12c.048.11.136.13.239.182v-.062h-.061l.061-.181a.767.767 0 01.296-.059c.086.123.098.136.237.059v.061h.06v.182c.294 0 .251-.072.415-.182l.12.062c.018-.041.038-.082.058-.123l.179.061v-.061h.535v-.12l.118.061.058-.12h.312v-.062a.509.509 0 00.178-.301h.176a.59.59 0 00.061.24l.178-.059v-.061c.088 0 .093.09.237 0l.12-.182c.118-.038.252.2.355.182v-.061h.12v-.06h.237v-.06h.118v-.06h.251c.02-.04.04-.081.058-.122h.173V7.52h.121V7.46l.593-.062c.02.062.038.123.058.182.068.069.025 0 .061.123h.296l.06.12.594.059.178.242h.051v.24h.06c.059.07.1.154.118.244l.239.061v.12h-.061v.06l.119.06c.095.177.095.364.251.484l-.06.181h-.118l-.061.12h-.058l-.06.484-.118.061v.12h-.118v.113c-.121-.033-.053 0-.121-.059a.59.59 0 00-.236.12v.06h-.061v-.06l-.236.06-.06.18a1.166 1.166 0 00-.475.062 1.95 1.95 0 00-.179.422c-.138 0-.151.051-.236.062v-.062l-.118-.059v.12l-.252-.06v-.121a.408.408 0 01-.178-.182c-.123.02-.251.115-.415.062v-.062l-.239-.059v.06c-.171.196.028.317-.354.363a.452.452 0 00-.121-.12l.06-.182h-.296a.422.422 0 01-.475.12l-.061-.12h-.296v-.062h-.058a1.308 1.308 0 01-.654 0v-.059h-.06v.06h-.236c-.061.081-.121.16-.179.255-.098.036-.11-.059-.118-.061l-.178.061v-.061l-.239-.062v.062c-.068.069-.023 0-.058.12h-.121l-.058.123h-.238c-.02-.103-.041-.202-.058-.305a.382.382 0 01-.179-.179l-.238.06-.058-.06-.061.12c-.078.029.02-.038-.06-.06-.08-.024-.101.055-.118.06l-.179-.06v.06c-.251.062-.251.218-.236.543h.058c-.018.082-.038.16-.058.255h.058v.062h-.058v.059h.058c.01.032.01.067 0 .1a.17.17 0 01-.058.081v.062h.058v.327h.06v.181h.061v.665h.057v.12h.061l-.061.665h.061v.12l.118.062v.302h-.058c.018.061.038.12.058.181h.118l-.058.182a.092.092 0 01.055.047.11.11 0 01.009.036.114.114 0 01-.006.037h-.058v.12h-.06a.974.974 0 00.06.425s-.09.02-.06.12h.06v.12h.058c-.02.041-.038.082-.058.12l.118.062c.023.076-.1.24-.06.422h.06v.061a.086.086 0 00-.067.083.08.08 0 00.007.037l.179.12v.182h.06v.133c.025.043.133.026.118.12h-.06v.182h-.058c-.02.102.055.102.058.12.06.256-.023.608.06.665v.059h-.06v.061h-.176v.061h-.061c0 .256.02.384-.118.484v.058l-.118-.058c-.038 0 0 .069-.121.058a.081.081 0 00-.017-.032.092.092 0 00-.065-.032.09.09 0 00-.036.006c-.04.058-.078.12-.118.181h-.06v-.061h-.133v-.061l-.297-.06v-.06l-.251.06v-.06l-.297-.062v-.12c-.201-.123-.184-.233-.533-.24-.035-.185-.106-.149-.121-.182l.061-.182-.119-.061c.021-.059.038-.12.058-.182h-.058v-.12h-.06v-.059h.06v-.302h-.06l.06-.363h-.06l.06-.181h-.06v-.302l.118-.061c-.037-.12-.078-.24-.118-.363h.06c.058-.133.079-.279.058-.422h-.058c-.072-.182-.03-.162 0-.302l-.118-.062.058-.181h-.058v-.12h-.06c-.028-.08.043.023.06-.06v-.066h-.06v-.301h-.025c-.063-.057-.023-.077-.179-.062v.062l-.118-.062a.983.983 0 01-.058-.36c.058-.028.113-.12.119-.123.251-.12.251.181.356-.182h-.06l.06-.179s-.085-.023-.06-.122h.06c.018-.06.038-.12.058-.182h-.118l.06-.12-.178-.12c-.073-.187.09-.192.118-.24l-.06-.182c-.143-.036-.131-.064-.236-.123.075-.256-.036-.473.057-.844h.061l-.061-.256h.061a.236.236 0 00-.118-.301v-.062c.045-.074.228-.056.356-.059.066.07 0 .023.119.06.02.06.037.122.057.18h.121c.081-.155.103-.101.118-.36h.058v-.061h-.058v-.062h-.475V10.7c-.068-.07-.025 0-.06-.123h.06a.346.346 0 01.297-.302l-.061-.302-.475-.058c-.017-.041-.037-.082-.057-.123h.057v-.059h-.073c-.095-.133-.188-.179-.251-.363h.06v-.062a.415.415 0 00.237-.058v.058c.107.083.228.145.357.182v-.297h.06v-.058h-.06c0-.108.06-.123.06-.123.038-.205-.196-.315.178-.422.021-.082.038-.161.058-.243l-.118-.059s-.033.097-.118.059v-.059a1.656 1.656 0 01-.475-.424h-.06v-.24c-.109-.19-.212.07-.237-.364h-.06V7.08h.118a.572.572 0 01.06-.302h.061v-.294h.058c.05-.087.04-.103.06-.24l-.179-.062-.06-.24.179-.062v-.061h.178v-.12l.06-.062h-.06l-.06-.12h-.118l-.179-.302h.121a.936.936 0 010-.544l.118-.06V4.31h.058c-.018-.161-.038-.322-.058-.483a.285.285 0 01-.252-.182h-.057l.057-.243-.118-.059c.023-.133.068.02.118-.061l-.057-.059V3.1h.057c-.02-.038-.037-.079-.057-.12v-.061h.057v-.36c.29.012.202.063.418.12.025-.17.075-.23 0-.422h-.061v-.123h-.06c-.025-.103.058-.105.06-.12a.835.835 0 00-.06-.422l.179-.12v-.062l.12.061v-.06a.458.458 0 01.237-.121l.475.24V1.47h-.038c0-.097.101-.076.121-.122v-.12h.13l.061.12h.236v-.06c-.103-.068-.08-.037-.118-.18l.236-.062v.061h.297c.085 0-.023.054.06.06l.06-.121.355.061v-.061h.121l.118-.182c.135-.043.279.177.296.182.14-.012.278-.032.415-.059.055-.256.171-.307.475-.304.063.112.282.355.536.243l.12-.172.179.062V.754h.357c.053.023.093.256.296.182.058-.082.119-.161.179-.243.173-.082.289.087.415.061V.693h.178V.634h.357V.573c.083 0-.025.048.058.061l.535-.061.058.12a1.53 1.53 0 01.239-.059c.035-.255 0-.368.415-.363.068.105.038.082.178.12.068-.115.159-.143.252-.24l.236.059.06.122c.186.049.161-.202.297-.181V.21l.533.122v.06c.251.07.251-.1.299-.12.252-.103.767.086.948.12V.21h.06c0-.085.018-.023-.06-.06.068-.083 0-.022.121-.06V.03c.191-.089.236.149.296.18l.335.05z" fill="#392B85"/><path d="M81.414 1.348l.297.061c-.02.04-.04.08-.058.12h.176c.02.12-.095.051 0 .12v-.058h.06v.058h.357c.038.062.078.123.118.182h.06v.182h.059v.12c.022.038.088.03.118.122h-.058c-.02.085.236.256 0 .24-.09.083.116.06.118.062.068.07 0 .023.118.06l.06.255h-.06v.12h-.058v.182h-.06c-.103.169-.183.352-.236.544l-.536.18c-.04.163-.098.186-.178.304h-.058v.24c-.033.08-.03-.018-.06.061h-.06v-.061h-.184c-.038-.061-.078-.12-.118-.182h-.118v-.058h-.179c-.08-.026.023-.075-.06-.062a.148.148 0 01-.176.062l-.06-.123h-.119v-.12c-.251.133-.231.12-.535.061-.048-.194-.07-.176-.297-.182-.03.054-.19.228-.296.182v-.061h-.119l-.06.243h-.239a.559.559 0 00-.058-.243l-.178.061v-.061l-.179-.062v.062h-.118v.061l-.178-.061v.061h-.252c-.017-.04-.037-.082-.057-.123l-.118.062c-.016 0-.02-.082-.121-.062v.062h-.236v.061l-.179-.061-.06.12c-.159.087-.179-.016-.237 0v.061h-.357V4.08l-.178.061V4.08l-.297.061c-.035 0-.03-.148-.118-.12v.059l-.178.061v.062c-.08.017 0-.016-.058-.062h-.06v.062l-.252-.062V4.08h-.297v.061l-.236-.061v.061l-.297.062c-.093-.164-.25-.228-.356-.364h-.119l-.06.182-.08.059v.061l-.179-.061-.178.243c-.093.04-.116-.062-.118-.062l-.179.062h-.06V4.26h-.058v.062h-.06V4.26h-.425v.12h-.06v-.058c-.091.023-.074.056-.119.12h-.06l.06.12h-.06v.12h-.058v.256h-.06l.06.422h-.06l-.06.256h-.058c.02.079.04.16.057.24h-.057v.013h.057c.016.105-.052.097-.057.12v.302h.118v.123l-.179.12.06.12-.06.363.118.059v.123h.24l.06.301h-.06v.06s.077 0 .06.122h-.06v.059h.06c.017.143-.03.158-.06.243h-.119a.41.41 0 00-.297-.243c-.082.158-.105.102-.12.363.269.19.025.207.06.422h.06c.026.12-.037.08-.06.123v.058l.118.062c.038.11-.047.092-.058.12v.061h.058v.361h-.058v.061h.058c-.02.082-.04.161-.058.256h-.12c-.08.156-.103.102-.118.36a.238.238 0 01.118.12l.251-.058v-.061l.236.061v.059l.179-.059v.059h.118v.061c.138.02.252-.186.475-.12v.059l.252.061v-.061l.593-.18c.055-.255.173-.255.475-.255.136-.115.294-.015.415.062v.058h.239v.062l.593-.062.06-.179.355-.061v.12c.077.04.14.103.178.182a.938.938 0 01.357-.062l.211-.345h.058c.07-.048 0 0 .06-.061.184.043.214.179.415.181l.06-.061v.061l.179.062v.058h.058v-.058c.098-.023.108.056.118.058h.058v-.058a.16.16 0 01.178.058c.083.018-.022-.04.06-.058l.18.058c.017-.04.037-.079.057-.12h.118v-.061h.297v.061h.367v-.061c.138-.038.158.048.251.061v-.061c.076-.033.028.028.058.061.224.1.412.269.535.484l.06.363h.059v.179h.042v.061l-.06.061c.023.036.093 0 .06.12h-.06v.12h-.058c.018.062.038.121.058.182h-.058a.853.853 0 01-.357.422h-.178l-.179.256c-.146.064-.269-.107-.475 0l-.118.182-.179-.062V12c-.095-.018-.062-.092-.118-.12h-.118v-.062h-.06v.062c-.083 0 .022-.044-.06-.062l-.297.062v.12a1.77 1.77 0 00-.236.058V12l-.179-.062v-.058l-.118.058v-.058h-.12v-.062l-.534.12v-.058h-.12v-.062h-.058v.062h-.252v.058l-.236-.058v.058h-.297v-.058l-.178.058v-.058a.56.56 0 00-.251-.123v-.12a1.545 1.545 0 01-.237-.062.097.097 0 01-.118.061v-.06l-.251-.06v.06h-.058v-.08h-.03v.059h-.06c-.046.09.06.123.06.123l-.06.12-.058-.062h-.06v.062l-.297-.062v.062h-.06v-.046l-.297-.182c-.09-.13.017-.187 0-.24h-.058c-.076-.205-.033-.292-.179-.422v.059c-.148.104-.118.255-.178.424a1.1 1.1 0 00-.536-.061v.061h-.178v.059h-.05v-.059h-.119v-.061l-.178.061v-.061a3.309 3.309 0 00-.475-.12l.058.542a.82.82 0 01.357.181v.062l.178-.062c.052.068.112.129.179.182-.036.12 0 .05-.06.12v.12a1.653 1.653 0 01-.415-.059v.06h.057a1.056 1.056 0 01-.176.362h-.299c-.015 0-.058.138-.118.182.035.123 0 .054.06.12a.279.279 0 00.237.182c.037.145.02.112.12.181v.062c.111.06.176-.054.237-.062v.062l.178.058v.123h.118c-.02.059-.04.12-.058.18h.058l.06.242h-.06v.12h-.058l.058.12h-.058v.182h-.06c-.028.128.138.243.06.425l-.178.12v.059h.058v.181h.06v.182l-.178-.06a.402.402 0 01-.118.241l-.119-.061v.123l-.178.12.058.181c.203.049.208.174.357.24h.239c.037.062.078.123.118.182h.057c-.017.062-.037.12-.057.182h.057v.24l.121.062c.078.156-.02.179.118.301.108-.145.307-.212.415-.12.201.051.209.164.357.256h.189l-.06.12.117-.061v.12h.06v-.059c.164-.043.18-.102.297-.181V17.2l.536.062.055-.141h.418l.057-.123h.121c.02.082.038.161.058.256.178-.041.138-.102.178-.12h.06v.058h.058v-.071h.179v-.061l.118.06v-.06h.178c.086 0-.022.066.06.06v-.06h.18v-.062l.236.061c.037-.043.077-.083.12-.12v.12h.058V17l.251.06v-.12l.119.06v.06l.296-.06v-.06l.179.06a.1.1 0 01.048-.053.097.097 0 01.07-.007V17l.178-.06a.1.1 0 00.048.053c.022.01.047.013.07.006a.101.101 0 01.05-.053.1.1 0 01.071-.006V17h.118v.06c.078 0 .098-.1.237-.06v.06l.357.062v-.123h.06v.061l.176-.06a.16.16 0 00.178.06V17l.252-.06V17h.058a.096.096 0 01.048-.055.094.094 0 01.072-.005V17h.119v.06l.236-.06v.06h.06V17c.128 0 .118.06.118.06h.357v-.12h.475V17h.06l.18-.06V17h.236v.06c.085.052.1.041.236.062.08-.14.203-.187.299-.304l.236.061v.12h-.085c-.028.09.153.138.178.182v.122h.06a.097.097 0 01-.028.103.094.094 0 01-.032.018v.059h.06l-.06.181.179.12-.058.243h-.06c-.02.082.045-.023.06.062.015.084-.06.12-.06.12a.101.101 0 00.007.072c.01.022.03.04.053.048.022.15-.126.187-.12.302l.06.061h-.179v.12h-.118a.346.346 0 01-.097.204.334.334 0 01-.2.098v.054H82v-.12h-.297v-.062h-.058v.062l-.178.058v.062l-.12-.062v.062l-.476-.062v.062c-.115.025-.08-.041-.118-.062h-.058v.062c-.12.018-.078-.036-.12-.062l-.179.062v.12h-.354v-.061h-.121v-.06h-.058v.06c-.1.023-.105-.057-.118-.06-.083-.017.023.042-.06.06-.131.033-.166-.031-.24-.06v.06h-.057v-.12h-.118v-.06c-.086-.03-.086.108-.12.12l-.18-.06v.06l-.175.06v.06l-.179-.06v-.06l-.178.06v.197h-.06v.06h-.179v-.06h-.236l-.06-.12h-.119v.06l-.178-.06c-.02.04-.04.078-.058.12h-.714v-.06c-.133-.048-.214.024-.297-.06v-.136l-.118.058v-.058l-.296-.062v.182h-.053l.06.181h-.06c-.033.062-.108.228-.237.182v-.061h-.12l-.058-.182a.768.768 0 01-.475 0v-.059h-.116c-.07-.04 0-.166-.236-.122v.06l-.118-.06-.06.122c-.064.02-.109-.117-.237-.061l-.06.12-.297.061v-.12c-.126.072-.13.136-.296.182a.91.91 0 00-.358-.363h-.06v.12h-.289c-.017 0-.015.082-.118.061v-.061l-.179-.061c-.02.04-.04.081-.057.122h-.06l-.119.06c-.033-.027.015-.098-.06-.06-.018 0-.161.205-.236.182l-.121-.182c-.103-.046-.088.036-.118.06h-.06v-.06h-.177v-.061l-.12.061v-.122c-.204-.052-.151-.123-.355-.18l-.06-.242h-.179a.397.397 0 00-.178-.182l.06-.12h-.06l-.058-.363.179-.12v-.062l-.06-.12h.06v-.363h-.06v-.18l-.119-.06c-.038-.103.055-.108.058-.12a.1.1 0 00-.058-.123c-.017-.126.058-.12.058-.12v-.543h.06l-.06-.181h.06v-.123h.06c.016-.092-.097-.077-.12-.12v-.12h-.065c-.056-.151.047-.287.057-.364l-.118-.059.06-.424h-.06v-.059h.06l-.06-.181h.06a.716.716 0 00-.12-.545c-.068-.07 0-.023-.118-.059v-.123h.118l.06-.24h-.06v-.12h-.058v-.07h.058c-.018-.06-.038-.12-.058-.18h.058l.06-.303h.06l-.125-.54h.06v-.12h.066c.015-.084-.053.026-.06-.06l.06-.18-.06-.123h.06v-.36l.178-.123c.106-.181-.043-.143 0-.302h.058v-.12a.5.5 0 01-.357-.363c.12-.105.05-.135.12-.24l.18-.12v-.256l.117-.062.058-.24c-.126-.074-.128-.136-.297-.182v-.12h-.118c-.017-.194-.05-.107 0-.301h.06v-.052h-.06c-.027-.145.06-.156.06-.24h-.06l.06-.182h-.06v-.255h-.06c-.023-.103.055-.103.06-.12l-.06-.182.12-.044c.124-.168.086-.222.058-.424a.394.394 0 01-.296-.24c.156-.144.042-.162.118-.364h.06v-.12h.06l-.06-.181h.06v-.358h.058l.06-.302h-.06v-.182h-.057v-.24l-.179-.123v-.12l-.178-.12.06-.12c0-.018-.078-.02-.06-.123h.06l-.06-.18h.06v-.06h.176v-.067c-.033-.077-.055.026-.058-.059l.118-.061-.06-.542c-.169-.044-.171-.11-.297-.182.03-.08.086-.105.06-.256h-.06c0-.084.02.016.06-.058l-.06-.182h.166c.038-.184.1-.14.118-.182.018-.04-.037-.12-.057-.181l.296-.243c.171-.256.048-.512.415-.604v-.12l.297-.061a.1.1 0 00.12.061v-.061h.176v-.059h.06v.059c.084 0-.022-.039.06-.059h.355v-.061c.139-.036.164.071.24.061v-.061h.183v-.06c.176-.027.176.154.236.18.123.059.402-.062.417-.059v.059h.118l.357-.059.058.12h.07v-.061l.237.061v-.12l.251-.061v.061h.058l.06-.12.119.059h.653v-.06l.252.06v.061h.057v-.061l.179.061v-.12a.508.508 0 00.251-.062v-.06l.475.06v.062c.06.038.252.158.355.12l.06-.12.179.059v-.06l.533-.06v-.062c.103 0 .163.164.296.123l.06-.123.358-.059.06.12a.153.153 0 00.176-.06h.06v.06c.186 0 .11-.09.179-.12h.236v-.061c.17-.072.163-.038.297 0v-.12l.239.059v-.06h.296v.06l.179.06v-.06h.296s-.015-.062.118-.06v.06h.06v-.06c.302-.07.539.044.712-.12.023-.05-.02.016.015-.104zm-7.793 1.631l.3-.24v-.062l.296-.06v-.06h.118v.06c.086.05.165.111.236.18h.06v.12c.038.078.074-.022.061.062h-.06c-.13.42-.189.02-.415.12a1.063 1.063 0 01-.178.182v.061l-.179-.061v-.059l-.178-.061-.06-.182zm2.14-.302l.178.422h-.06v.182c-.066-.051 0 0-.058-.059-.1-.069-.083-.038-.12-.181h-.119v-.062h.06l-.06-.24.178-.062z" fill="#D51644"/><path d="M109.859 1.41v.112h.06v-.06c.05-.114.058.121.058.121h.118v.059h-.058c0 .1.088.066.118.123v.12h.061l-.061.12.415.363c0 .077-.113.212-.058.363h.058v.12h.06l.061.182h.118v.24c-.206.144-.199.407-.475.484v.424h.06v.12h.058v.182l.118.059c.096.212-.151.908-.176 1.087h.058v.24l.251.182c.04.094-.06.117-.06.12-.03.2.287.404.178.785h-.06l.06.12h-.06c-.035.133-.123.322-.236.182v.12c.236.138.208.143.178.363.015.03.098 0 .058.12l-.118.061c-.05.128.048.17.06.243h-.06v.12h-.06c-.031.18.095.126.12.182v.12h-.06v-.061c-.05-.113-.06.123-.06.123l-.237.059v.301l.237.182v.061c.1.07.138 0 .251.12h-.073v.12h-.058l-.06.604.118.062.06.363H111v.058c.06.05.058.075.118.123l-.06.182-.176.12c.017.08.037.161.058.24h-.058v.123h-.061l-.06.18h.06v.122l.119-.062v.182h-.119c-.085.148-.186.169-.251.363h-.06c.02.039.04.08.058.12.017.041-.088.016-.058.182h.058v.064s-.051.025-.058.123h.118l.118.36-.178.123.06.302h-.06v.059h.06c.1.071-.118.06-.118.06-.068.07 0 .024-.118.062a.901.901 0 000 .484h.118v.12h.118c.038.169.239.24.118.363h.121v.179l-.299.061c-.07.174-.11.358-.119.545h.061v.24l.118.062v.12l.118.061c-.02.039-.04.08-.058.12a.152.152 0 01.062.08c.01.034.009.07-.004.102h-.058v.12h-.06v.062a.1.1 0 01.06.12h-.06v.36h.06v.182h.073l-.058.182h.058v.122h.06c.096.228 0 .583.179.724v.061h-.06c-.078.317-.36.453-.533.663-.108-.049-.272-.202-.418-.18v.06h-.118l-.06.255-.179.06a.107.107 0 00-.118-.06.1.1 0 01-.118.059v-.059c-.183-.061-.111-.018-.297 0l-.06-.256c-.121-.038-.148-.02-.058-.12h-.178v-.061c-.116-.059-.347-.09-.418-.182v-.112l-.118-.059.061-.181-.121-.062v-.24l-.118-.062v-.301c0-.018-.076-.018-.058-.12h.058v-.484h.06l-.06-.256h.06v-.483l-.118-.059c-.126-.307.211-.378.118-.726h-.06c-.086-.287.043-.698.06-.905l-.06-1.023v-.785s.09-.02.06-.12l-.118-.062v-.181h-.06v-.12h-.061c-.02-.09.098-.08.121-.12v-.121h.058v-.256a.614.614 0 00-.236-.059v.06c-.129.073-.3-.055-.357-.06v.06l-.237-.06v-.06c-.14.01-.28.03-.417.06v.136l-.179-.12c-.02.038-.037.08-.057.12-.086 0-.101-.056-.239-.061-.02-.06-.04-.12-.058-.182-.251.056-.563.312-.95.182v-.06h-.128v-.06l-.176.06c-.038-.015-.083-.18-.179-.18v.058h-.251c-.058.082-.118.161-.179.256h-.653c-.071.128-.134.13-.176.302-.161 0-.141.084-.297 0l-.06-.12h-.292v-.062h-.118v-.061c-.111 0-.153.158-.299.122v-.061h-.118l-.119-.182h-.06v.049h-.236v.059l-.179-.059v.059c-.118.025-.078-.034-.118-.059l-.178.059v-.059h-.061v.059l-.178.061v.062l-.176-.062v-.061l-.251.061v.136l-.297-.182v.061c-.156.105-.126.172-.118.422.068.07.022 0 .058.123h.118v.12h-.118c0 .085.045-.023.06.06.113.053-.118.06-.118.06a5.89 5.89 0 00-.121.604h.121a1.777 1.777 0 00-.061.665h.061v.061h-.061v.302c0 .015-.078.02-.06.12h.06l.061.364h.058c-.038.24-.078.483-.119.723h.061l-.061.182h.061c.073.23.098.409.176.603h.068v.06h.417v.06h-.06v.06c-.109.058-.093.084-.252.122-.017.1-.038.2-.058.302h-.047v.36h-.061v.118h-.058c.021.12.041.24.058.36h.061l-.061.123c0 .077.113.207.061.36h-.061c-.017.083-.037.162-.058.257h-.118v.24c-.085.046-.153.169-.178.182h-.252a1.435 1.435 0 00-.178.363.704.704 0 01-.355-.243c-.192.069-.392.11-.595.122-.056-.11-.08-.094-.118-.255h-.099v-.12h-.118v-.062l-.12.062v-.062h-.058c0-.074.115-.11.058-.24l-.118-.062v-.12h-.058a8.72 8.72 0 01-.179-.243h-.06c.04-.1.08-.2.118-.302h-.058l-.06-.24h.06c.043-.166.015-.135.179-.181l-.06-.545-.358-.059v-.181h.06v-.062l.358-.12v-.12a.432.432 0 01-.12-.182h.06v-.061h-.06c-.021-.059-.039-.12-.059-.182h.058v-.179h.06v-.061h-.06a.81.81 0 01-.058-.422l.118-.061.06-.364c0-.025.101-.023.119-.12h-.06v-.181h-.058v-.182l-.12-.059c-.066-.217.228-.235.178-.483h-.058v-.302h-.06l.178-.545-.06-.181h.06c-.04-.12-.08-.24-.118-.363l.118-.059c.03-.102-.058-.107-.06-.12l.06-.182h-.06c-.02-.061-.038-.122-.058-.181h-.06l.06-.182h.058l-.058-.181c.02-.034.08-.044.118-.12h-.118a.829.829 0 000-.484c0-.02-.106-.023-.12-.12h.06l.06-.256-.06-.061c.017-.034.105-.016.118-.12-.013-.031-.106-.018-.119-.12.026-.052.121-.021.119-.12h-.058v-.244h-.06V9.45h.06v-.363h.058v-.061h-.058l-.06-.24h.06v-.12l.118-.062-.06-.243h.06l-.06-.18.118-.06v-.062h-.058v-.483h-.06l.06-.182c-.161-.069-.251-.107-.297-.302.133-.12.046-.13.118-.301h.06v-.12h.059l.06-.665h-.06l.06-.182h-.06l-.058-.967h.058c0-.084-.05.026-.058-.059a.109.109 0 01.058-.122l-.058-.24c.045-.07.078.022.058-.062h-.058v-.12l-.12-.059c-.124-.315.203-.332.178-.545h-.058v-.181h-.06l.06-.182h-.06l.06-.181v-.06h-.06l.06-.18a.092.092 0 01-.055-.048.096.096 0 01-.006-.073h.06v-.123h.059l.178-.483a.562.562 0 00.118-.12l.297-.06.12-.18.533-.062v.061l.121-.061v.061h.118l.297.36h.118V2.2l.179.12c.133.205-.018.256.236.425l-.118.179h-.058v.123h-.06c-.026.1.057.107.06.12l-.06.182.118.058v.305h.06v.058h-.06v.182h-.058v.061h.058c-.038.323-.078.645-.118.967h.06v.123h.058v.181h.06l-.06.182h.06c.101.161.143.112.178.36-.558.256-.095.555-.238 1.149h-.058l.058.181h-.058v.12h-.06a.096.096 0 00.006.073c.011.022.03.04.054.048l-.06.181a.106.106 0 01.06.123h-.06v.12h-.061l.061.24a.124.124 0 00-.061.123h.061c0 .085-.046-.025-.061.06l.061.362.178.12a.16.16 0 01-.06.182v.061h.06v.06h-.06l.06.122c.156.082.101.105.357.12v-.12c.146.036.339.212.593.12v-.077l.357-.12c.018.041.038.08.058.12l.118-.058s.045.081.121.058l.058-.12.178.062a.101.101 0 01.017-.034.094.094 0 01.029-.023.088.088 0 01.072-.005l.061.12h.238l.058.062.252-.302c.095-.04.113.059.118.059a.103.103 0 00.118-.059h.06v.059h.355v.123l.596.058.057-.12.179.062v-.062c.274-.071.339.146.535.12v-.058c.091 0 .035.076.237 0v-.062l.357.062v-.062h.118v-.061l.178.061v.062l.772-.062v-.061h.06c.02.04.041.082.058.123h.06v-.062l.239.062v-.062h.355c.037.013.03.146.12.12l.119-.181.178.061v-.061h.058V8.71h.06v-.284h.058v-.061h-.058c-.022-.138.033-.159.058-.24h-.118v-.12h.06l-.06-.182h-.118c0-.335.113-.31.178-.545h.098a1.93 1.93 0 01.179-.483h-.118l-.061-.312a.1.1 0 00.053-.049.104.104 0 00.008-.071h-.061v-.12h-.06l.06-.302h.118l-.057-.062v-.061h.057a.17.17 0 000-.1.176.176 0 00-.057-.082v-.059h.057c.015-.102-.057-.12-.057-.12.02-.082.04-.16.057-.243h.134v-.112h-.121a.52.52 0 00-.118-.302h-.061c.061-.182.121-.363.179-.545a.372.372 0 01-.236-.363h-.061l.179-.302h-.061l.061-.24h-.061v-.256h-.057c-.043-.153.062-.327.057-.36h-.057V2.37l.118-.062.06-.36c.184-.049.201-.115.236-.305h.121v-.122c.168-.028.329-.09.473-.182v-.059l.12.059v-.059a.166.166 0 01.179.059l.176-.059v.059l.234.07zm-1.069 3.804v-.061h.237a3.99 3.99 0 00-.058.182h-.121c-.035-.12.01-.052-.058-.12z" fill="#392B85"/><path d="M24.822 2.859l1.068.059v.061c.024.008.05.005.073-.006a.1.1 0 00.048-.055l.176.061c.013-.015 0-.11.06-.061v.123l.179-.062.357.422c.213.138.226-.125.415.182h.06l-.06.181s.062 0 .06.12l-.06.062.118.061v.072h-.058c-.015.115.058.123.058.123.02.102-.056.102-.058.12.02.059.038.12.058.181h-.058v.12l-.12.06.06.362h-.06v.12l-.119.062v.243l-.118.059a.859.859 0 01-.475.061V5.53h-.06v.061h-.237v.059l-.118-.059v.12l-.12-.061-.058.123c-.109.04-.093-.049-.119-.062l-.178.062-.06-.182a1.46 1.46 0 01-.237-.061.095.095 0 01-.083.067.092.092 0 01-.037-.006l-.058-.061c-.025 0 0-.095-.179-.059v.059c-.085.023-.301.03-.296-.059h-.05v.12l-.237.059a.137.137 0 00-.12-.059l-.058.059V5.59H24V5.53c-.103-.067-.073-.051-.176 0v-.12a.268.268 0 01-.239 0v.061a1.052 1.052 0 00-.297.12l.06.059-.06.123-.178.059v.181h.239c.017.041.038.082.058.12.16.156.128.512.178.788h.06l-.06.12h.06v.108l-.178.12c.02.082.04.16.058.243h-.058c-.068.069 0 .023-.118.059v.122c.251.07.289.149.236.36l.179.124a1.13 1.13 0 010 .542h-.06v.12h-.059c.028.164.067.325.119.483.037.143-.063.161-.06.256h.06v.12h.06l-.06.182h.06A.746.746 0 0124 10.3c-.159.1-.196.255-.355.363.02.04.038.082.058.12h.06c.023.09-.113.087-.118.123v.059h.058l-.058.181.179.12.058.785-.118.062a.088.088 0 00.06.12v.061h-.06c-.03.146.05.154.06.24l-.12.062v.12h.06v.363l.178.12c.033.08-.03.019-.06.062 0 .136.06.12.06.12.078.256-.043.274 0 .484H24v.06l-.058.06H24c.033.194-.073.189-.118.301h-.058v.062h.118v.302c0 .012.083.02.058.12h-.058l-.06.255h-.118c.06.247.207.462.414.604-.073.13-.271.317-.296.483v.062h.06v.302H24c-.018.079-.038.16-.058.24.043.061.08-.02.058.061h-.058v.087l-.118.062c.018.1.038.202.058.301h-.058l-.06.302.178.061-.06.18c.012.04.115 0 .118.181h-.058v.061l.118.062v.24l.118.061v.484h.06v.483h.046v.08h-.06v.06l.118.062v.12l.239.182-.06.179c.145.036.13.064.25.123v.12h-.06l.06.182h.119a2.715 2.715 0 00-.239.723h-.058v-.059c-.1.018-.15.167-.178.182h-.297v.059h-.06c-.043-.034.02-.09-.06-.059v.059h-.119l-.118.181-.118-.061-.12.181-.237-.058v-.062c-.068 0-.116.12-.236.062l-.179-.302h-.12v-.084c-.109-.039-.086.035-.119.06-.083 0 .025-.048-.057-.06l-.24.06v-.06c-.268-.185-.422-.903-.535-1.28v-.28h.06l-.06-.182c.04-.061.086.02.06-.061h-.06v-.12h-.058v-.062h.058c.015-.133-.058-.12-.058-.12.02-.059.04-.12.058-.182h-.118v-.12c-.017-.046-.133-.025-.118-.12.023-.154.314-.399.236-.604l-.118-.06.06-.121h-.06c-.025-.154.133-.427.06-.665h-.06v-.256h-.058l.058-.181-.118-.06v-.3h.06a.104.104 0 00-.06-.121l.06-.123s-.085-.038-.06-.181h.06v-.06h-.06l-.06-.362h-.058l.058-.12-.058-.182h.058v-.061a.091.091 0 01-.054-.048.096.096 0 01-.004-.073h.058v-.12h.06a.097.097 0 00-.005-.073.094.094 0 00-.055-.047c0-.087.052.023.06-.061 0-.146-.073-.146-.118-.24h.118v-.123c-.12-.034-.05 0-.118-.06.14-.1.208-.767.118-1.089h-.06c-.028-.115.03-.079.06-.12 0-.087-.088-.095-.06-.24h.06v-.062h-.06v-.058c0-.013.098-.024.06-.123l-.118-.06v-.114h-.06c0-.11.15-.156.118-.302h-.058v-.12h-.06c-.058-.184.138-.59.118-.665l-.119-.059v-.243a1.057 1.057 0 01-.178-.181c.12-.034.053 0 .118-.06-.178-.02-.16 0-.236-.122.221-.12.302-.24.297-.603h-.06c-.046-.087.06-.12.06-.12a1.427 1.427 0 01-.06-.256v-.24h.06c.017-.085-.043.022-.06-.062-.018-.084.055-.102.06-.12a.099.099 0 00-.007-.073.096.096 0 00-.054-.047l.06-.182h-.118v-.12h.058V8.88h-.058v-.12h-.06c.073-.179.035-.256-.178-.302.057-.214.153-.207.25-.363l-.06-.181h.048v-.182h.058v-.302h-.058c.02-.061.04-.12.058-.181h-.058v-.604c.02-.061.04-.12.058-.181h-.058c-.027-.18.035-.14.058-.182v-.059h-.058l.058-.181h-.058c-.098-.164-.251-.156-.296-.363l-.357-.12v-.182h-.06a.477.477 0 01-.119-.363c.08-.07.09-.11.118-.24l-.176-.062-.06-.182H20.2v.062c.095.061.153.112.118.302h-.055l.06.181h-.06c-.068.108-.066.138-.179.059v.182h-.073c-.055.079-.047.107-.06.255h-.118v.182c-.128.023-.113.059-.118.059h-.297l-.12.181h-.415l-.06.12-1.006-.058v-.187a1.405 1.405 0 01-.536-.604c-.19-.046-.216-.081-.236-.301h-.05v-.062l.178-.12.06-.363h.058a.1.1 0 00-.005-.072.096.096 0 00-.052-.048v-.062h.057V4.18h-.057a.832.832 0 01.057-.425c.315-.087.23-.31.594-.363v-.12l.06.061h.055v-.061h.179v.061h.058v-.12h.118v-.123c.153.05.314.07.475.062v-.062h.06v.062c.08.023-.022-.046.06-.062h.056v.123c.143 0 .148.04.239.059l.118-.182h.236V3.03h.06v.06c.156.03.179-.06.179-.06.158-.046.274.049.357.06l.593-.06c.02.039.04.08.058.12a.71.71 0 00.475.182v-.061c.12-.064.174.066.239.061v-.061h.178v-.06c.141-.04.159.065.237.06v-.06h.299v-.06l.357-.062v-.12c.269.08.093 0 .357-.061l-.06.122h.06V2.97h.06v.061h.415c.083 0-.025-.064.058-.061v.061h.12v.06c.098.025.108-.057.119-.06l.118.06.178-.06c.01.022.028.04.05.05.02.01.045.014.068.01v-.06h.179V2.97l.357.12V3.03c.098-.058.078-.028.113-.171zm-2.73 1.33c.053-.157.093-.32.118-.484h.063c.086.128.146.271.178.422a.68.68 0 01.24.12v.062l.117-.061-.06.422-.475.176a.326.326 0 00-.236-.12v-.12l-.179-.12.06-.256.174-.041zm1.423.603v.054c.09.059.103.118.178.182v.074h-.178v.059h-.058c-.05-.077-.04-.072-.118-.12V4.8l.176-.008zm-1.423 1.45h-.07c.06-.128.042-.056 0-.181a.612.612 0 01.236.059v.242c-.13-.038-.1-.017-.166-.12zm.533-.122s0 .235.06.122c.083-.015-.025-.059.058-.061l-.058.061c0 .09.068.082.118.12-.05.07 0 0-.06.062v.059a1.044 1.044 0 00-.415-.06v-.122h.118c.046-.164.015-.135.179-.176V6.12zM57.66 1.954c.204.05.154.123.358.179v-.12h.06v.061h.236v.059h.06v.181c0 .023.084.057.119.12.281-.104.19-.017.296-.301h.06v.061c.099.054.05-.082.059-.12l.178.059v.061l.178-.061v.061h.119v.062l.118-.062v.062h.12c.02.038.038.079.058.12h.12l.059.12c.2.11.428.152.653.12v.123h.118v-.123c.145.092.267.216.357.363v.12h.06c.036.041.03.133.119.123 0 0 .028-.105.118-.061.04.061.08.12.118.181l.357.12.06.243.237.06v-.06h.06v.118c.068.051.086.028.118.12l-.06.062.3.24v.256h.057v.12l.118.059.06.304h.06l-.06.18h.06c.018.04.038.081.059.122h.12v.059l.118.061c.086.13 0 .161.058.302h.06a.097.097 0 01-.028.102.093.093 0 01-.032.018v.041h.06a.13.13 0 01-.06.12l.06.182a.09.09 0 00-.055.046.093.093 0 00-.005.074l.357.302v.785h-.058c-.037.14.07.166.058.243h-.058l-.06.181h-.06c0 .097.1.072.12.12v.249h.058c.018.1-.055.104-.058.12a.872.872 0 00.058.422l-.058.061h.058c.07.085.112.19.118.302-.37.222-.1.255-.236.483l-.118.061-.252.361c-.213-.049-.23-.118-.356-.24h-.058v.058l-.118.062c.017.04.037.08.057.12h.06c-.04.061-.08.12-.117.182 0 0 .095.035.057.12l-.178.123v.301h-.058v.12l-.178.12v.12c-.121.157-.21 0-.297.305-.287.077-.251.256-.654.302a.71.71 0 00-.414-.363v.061a.288.288 0 00-.121.24h.06v.062h-.06v.12h-.058l.058.12h-.058v.12h-.06a.515.515 0 00-.118.256h-.119c-.17-.097-.226.128-.356.24.042.075.218.177.178.305h-.06v.059a.083.083 0 01-.074 0 .084.084 0 01-.044-.059l-.179.059a2.811 2.811 0 00-.239.544l.357.06v.122c.12.098.265.16.417.18l-.06-.121.357-.12a1.856 1.856 0 01-.06.422h-.179v.061l-.118-.061v.301c.199.136.096.067.06.256.043.064.287.154.237.302h-.06v.12h.12l-.06.182h.06c.123.09.265.153.415.181v.12c.35.098.226.228.297.425v.179h.06c.04.046.032.056.058 0h.06c.126.21-.153.202.178.304a.563.563 0 00.058.302h.06v.179h.061v.123c.08 0 .105-.092.236 0 .04.059.08.12.118.181h.083v.24l.179.12.06.303h.118v.122c.126.072.128.136.297.182v.12c-.058.08.025.256.06.422l.176.061c-.037.2-.037.405 0 .604h.06l.061.243h-.06l-.06.179h-.059c-.09.212.086.159-.118.302v.061l-.12-.061v.122h-.058v-.06c-.068.068-.025 0-.06.12h-.237c-.048-.141 0-.244-.178-.361v-.062h-.179v-.061h-.06l-.058.181c-.017.06.103.016.058.12a.78.78 0 00-.118.123l-.179-.06c-.03.02-.012.104-.118.06v-.06a.585.585 0 00-.251-.121 1.24 1.24 0 00-.297-.545l-.118-.059v-.122h-.06c-.018-.162-.038-.323-.058-.484l-.118-.059v-.12h-.06c0-.087 0 0 .06-.061-.04-.087-.048-.072-.121-.12-.073-.049 0-.026-.118-.062l-.06-.181h-.058v-.182l-.118-.059V17.8h-.06v-.18l-.119.06v-.182h-.06v-.12h-.053v-.182l-.176-.12v-.12l-.12-.123h-.119v-.059l-.297-.243.06-.179h-.06a.518.518 0 01-.06-.243h-.234a.515.515 0 01-.118-.422c-.166-.043-.133-.018-.178-.181-.166-.044-.134-.018-.179-.182h-.06v-.363l-.179-.12c-.037-.202-.078-.402-.118-.604h-.118a.558.558 0 00-.118-.243h-.06a.334.334 0 00-.129-.452v-.062c-.07-.046-.025.054-.06.062l-.178-.062c0-.294-.063-.204-.119-.422-.145-.035-.13-.064-.236-.12.058-.189.033-.092 0-.301-.284-.064-.251-.174-.654-.182l-.06.181h-.236l.058-.122h-.058v.061l-.357.062v-.062l-.11-.056-.061.256-.178.061c-.023-.215-.073-.184-.119-.363h-.118v.12l-.296.061v.06a.104.104 0 01-.12-.059.136.136 0 00-.12.058l-.178-.059a.093.093 0 01-.046.056.089.089 0 01-.072.003l-.06-.12h-.179c0-.163-.019-.325-.058-.483h.119v-.062c-.114-.053-.234-.064-.237-.24 0 0 .09-.043.058-.12h-.058l-.06-.123h-.118l-.12-.179h-.059c-.052.207-.123.153-.178.36h-.118c-.053.197-.074.4-.06.604.213.187.082.338.178.606l.118.059v.061h-.058l-.06.12c-.123-.066-.106-.097-.297-.12-.073.133-.168.213-.251.364l-.236-.062v-.061l-.179.061s-.03-.1-.118-.061v.061l-.179.12.06.182a.608.608 0 00.237.061.803.803 0 01.239-.181v-.062l.176.062c-.028.084-.078.1-.058.24h.058v.061h-.058v.302c0 .015.075.02.058.12h-.058v.123h.297v-.123l.118-.058a.088.088 0 00-.058-.12c.018-.103.038-.203.058-.305l.357.061v.062h.118v.059l.178-.06.06.121h.059c.025.038.037.194.06.24h-.06c-.088.205-.201.45-.297.665-.204 0-.546-.04-.654.062h.06l-.06.181.179.12v.24h.06l-.06.182h.251a.86.86 0 01.118-.12.087.087 0 00-.002-.075.086.086 0 00-.058-.045l.06-.182c.23.062.186.177.415.24a1.09 1.09 0 01-.058.484h-.06v.182h-.06v.061h-.179c-.073-.115-.058-.1-.236-.12l-.06.302h-.058c.057.181.118.36.178.542.162.025.321.066.475.122v.12h.058l-.058.062.058.18-.475.06c-.02.041-.04.08-.058.12h-.065l.06.182h-.06l-.06.182.357.12v.12h.118v.123l.251.059-.06.255a.1.1 0 01.052.049.104.104 0 01.008.072h-.06v.061a.104.104 0 01.06.12h-.06v.062h.06v.097h.058c-.018.04-.038.079-.058.12h.058v.136h.06v.363l-.118.061v.302l-.118.059c.017.061.038.122.058.181h-.058l-.12.182-.355-.06-.06.121-.18-.061s0 .074-.117.061v-.061h-.06c-.046.03 0 .081-.119.061v-.061a.092.092 0 00-.1.028.096.096 0 00-.018.033c-.123.018-.118-.061-.118-.061l-.178.061v-.061c-.084-.041-.076-.087-.121-.12-.151-.11-.11.066-.176-.182h-.12v-.256l-.119-.059.06-.181h-.12a.564.564 0 00-.118-.24h-.058c.017-.062.037-.123.058-.182h-.058v-.123h-.06c-.073-.256.095-.256.118-.302l.06-.36-.06-.062h.06v-.12h.058v-.061h-.058v-.785l-.118-.062v-.179h-.06c.03-.082.05-.168.06-.255h.118l-.06-.422h.06a.816.816 0 00.058-.425l-.118-.059.06-.181-.118-.062v-.05h.058c.017-.11-.053-.098-.058-.123v-.543h-.06v-.181h-.06v-.256h-.059v-.12h-.06l.06-.182h.058c.025-.104-.055-.102-.058-.12a.701.701 0 01.058-.363h-.058l-.06-.181h-.06v-.06h.06a.104.104 0 00-.008-.071.101.101 0 00-.052-.049c.047-.146.106-.288.178-.424v-.059h.252v.059h.057a1.268 1.268 0 01-.118-.302l-.236-.059-.12-.846s.165-.138.178-.243l-.179-.12c-.038-.097.06-.115.06-.12v-.062h-.06c-.025-.145.05-.153.06-.24h-.06c-.023-.108.056-.1.06-.123v-.542h.06v-.12h.059c.02-.085-.043.023-.058-.062a.104.104 0 01.007-.07.101.101 0 01.05-.05l-.057-.243h.058l-.058-.12v-.302h.058v-.061h-.058a.172.172 0 01.058-.182l-.058-.301c-.166-.044-.133-.016-.179-.182h.058a4.96 4.96 0 00-.058-.179l.179-.123c.085-.174 0-.422 0-.542l.058-.061-.179-.12v-.647l-.058-.062h.058a.491.491 0 00.12-.24c-.18-.11-.25-.172-.178-.422h.058v-.3c0-.017.08-.015.06-.12h-.06v-.181h-.075v-.12h-.06a.097.097 0 01.028-.102.093.093 0 01.032-.018c0-.11-.06-.12-.06-.12l.06-.123-.118-.06v-.122h-.06l.06-.179h.057a.104.104 0 00-.005-.073.101.101 0 00-.052-.05c-.018-.128.057-.12.057-.12-.02-.061-.04-.12-.057-.181l.118-.06v-.122h.058a4.764 4.764 0 00-.058-.18h.058v-.06c0-.034-.144-.034-.119-.12l.179-.123v-.302h-.118c.02-.08.04-.161.058-.24l-.058-.062.178-.12v-.302l.058-.061c.133.036.128.074.297 0v-.059h.178v-.061l.179.061s.015-.08.118-.061v.061c.18.023.12-.097.178-.123.106-.046.211.074.24-.059h.057v.12h.178l.06.12.358-.058v-.061c.04 0 .2.104.354.061v-.061c.216-.047.438-.047.654 0v-.12l.357.058v-.059h.06v.06h.058v-.06h.251v-.061h.058l.06.12.179-.059v.06c.09-.026.088-.103.118-.121h.118V2.44l.179.061s.022-.09.118-.061l.06.122c.171.06.332-.148.415-.181l.357-.062.06.062c.04-.34.149-.197.237-.363v-.12c.276-.016.394-.098.455.056zm-3.74 2.414h.06l-.12-.18h.06v-.11h.06v-.18h.058c.03 0 0 .107.06.06.02-.04.04-.079.058-.12.186-.107.146.047.3 0 0 0 0-.046.118-.06v.045h.057c-.017.059-.037.12-.057.182a.107.107 0 01.058.12h-.058v.061a.09.09 0 01.054.048.094.094 0 01.003.072h-.057v.182h-.06v.059h.06v.061s-.043 0-.06.12h.117v-.061c.098.02.144.169.179.182l.475-.06v-.122c.12-.033.053.015.12-.059h-.06v-.061l.119.061v-.181h.06v-.062l.357.062c.017.081.038.16.058.24.196-.028.299 0 .414-.179h.121v.059c.109.068.208.15.297.243.228-.03.166-.074.357-.123a.254.254 0 00-.121-.12v-.302c.17.078.316.204.417.363h.058c-.02.059-.038.12-.058.182l.297.181c.023-.02.02-.112.118-.061v.061h.06v.06h.07l-.057.18h.058v.062a.459.459 0 00.247-.152.473.473 0 00.11-.272l.236-.06v.057l.252.061.06-.12h.236v-.061c.113.023.14.235.297.181v-.061c.032 0 .251.036.178-.059h-.06v-.061c.188.059.09.033.299 0 .038.078.1.142.176.181v.12a.792.792 0 01.417.182c.02.062.04.12.058.182h.12l.119.181.297.24c.052.067-.053.054-.06.062-.018.115.055.038.12.061.017.1.038.2.058.302 0 .026-.106 0-.058.059l.176.061c.06.13-.073.172-.058.24h.058l.06.364h.06l-.06.181.179.12c-.028.149-.164.277-.06.425h.06c0 .03-.035.256.06.18v-.06h.058c-.02.06-.04.12-.058.182a.085.085 0 01.057.046.088.088 0 010 .074l-.117.062v.179h-.06v.076h.06v.062l-.179.12v.12l-.118.061-.06.24-.118-.058v.181c-.503.072-.144.172-.297.484l-.832.603v.06a.617.617 0 01-.236-.241.48.48 0 00-.252.12v.061h-.118v.06h-.239v.06l-.118-.06-.178.06s-.018-.071-.119-.06c-.1.01.026.055-.06.06-.025-.017-.048-.112-.176-.06l-.06.122h-.179c-.075.033.02.028-.058.059-.158-.192-.404-.256-.535-.484h-.178v.062l-.237-.062-.06.12H56.9v.062c-.125.025-.18-.159-.236-.12v.12c-.108.102-.198.066-.357.12v.062c-.224.053-.188-.1-.251-.12h-.237v-.062c-.286-.074-.291.156-.414.256l-.179-.062c-.022 0-.015.087-.12.062v-.062h-.058v.062a.4.4 0 00-.252.302h-.095v-.123h-.118v-.141c-.284.082-.07.054-.179.256-.015.025-.085.046-.118.12l-.357.061v-.122l-.239-.06c0-.255-.028-.314-.236-.362.073-.256.229-.215.297-.484.082-.082-.114-.227-.06-.483h.06s-.161-.399-.179-.422l-.178-.123c-.018-.1-.038-.2-.058-.301h-.06l.178-.302h.06l-.06-.665h.06v-.12h-.07v-.062h.06v-.36h.058V6.98l-.118-.058.06-.364h-.06v-.12h-.06v-.181h-.058a.104.104 0 01.006-.073c.01-.023.029-.04.052-.05a4.958 4.958 0 00-.058-.18h.058c.017-.135-.07-.173-.058-.242h.058c.052-.335-.124-.363.06-.545 0-.353.017-.255-.236-.301l-.06.301-.18.123v.12h-.06c-.06.169.093.343.06.422h-.06v.036l-.236-.061c-.04-.141-.08-.282-.118-.422h-.06v-.12h-.056l.06-.123h-.06a.381.381 0 01.06-.302l.119-.059a.091.091 0 00-.025-.105.088.088 0 00-.033-.018v-.058h.058v-.182h-.058l.058-.182c.081.013.161.033.239.062v-.062h.057c-.017.062-.037.12-.057.182l.178.12-.06.12h.06v.062c.123-.062.053-.044.179 0l-.06-.182h.117V4.48l.252.06v.06c.08.024 0-.02.058-.06l.178.06v-.12c.123-.03.093-.007.161-.112zm8.849 3.444v.12h.118l-.06.182h-.179v.056l-.297-.06v-.182c.135-.053.275-.092.418-.116zM52.613 10.23v.059h.12l-.06.123h.179v.061h.057v.256h-.176c.018-.062.038-.123.058-.182-.19-.023-.173-.056-.296-.12v-.182l.118-.015zm.12 1.327c.066.167.09.277.237.364-.02.181 0 .166-.118.255-.068.067 0 .026-.119.059a.462.462 0 00-.178-.12l-.116-.363h.06v-.12a.636.636 0 00.234-.075zM43.64 2.918v.123a2.66 2.66 0 00.597-.123c.017.061.037.123.057.181.068.07.026 0 .06.123h.119c.032.151.13.43.239.483h-.121v.302c.108.056.096.082.251.12l-.06.24a.132.132 0 01.06.124h-.06v.058l.118.062v.059h-.058l.058.181-.118.062v.12h.116c-.018.061-.038.12-.058.181 0 0 .09.023.058.12h-.058a.53.53 0 00-.06.256 1.201 1.201 0 01-.237-.061v.061h-.12c.12.307 0 .4-.058.665l-.252.059c-.02-.038-.037-.08-.057-.12l-.297.061v.12h-.06v.062l.118.058c-.02.062-.04.12-.058.182h.058c.15.256.324.153.535.302v.061l.237.182-.058.059.058.181.178.061.06.361c-.042.074-.073-.023-.06.061h.06v.422h.07v.123h-.057v.059h-.357a.252.252 0 00-.236-.12v.061h-.06c0-.013 0-.115-.061-.061v.061l-.118.059.06.256h.118v.12h.06l-.06.12h.06c.018.041.038.082.058.123l.179-.062v-.12h.239c.027.292.073.32 0 .542h.176v.062c-.131.123-.046.13-.118.302h-.058v.181h-.076c-.068.07 0 .023-.118.059v-.12h-.12v-.06l-.297.18c.033.212.06.112 0 .304.12.034.053 0 .12.059.204-.051.151-.125.355-.181a.458.458 0 00.357.255l.06.24h-.06v.182h.06v.062h-.06v.181l-.06.059h.06l.06.182h.118c-.083.301-.213.14-.296.424l.118.059v.061h-.045c0 .108.06.12.06.12 0 .07-.06.12-.06.12v.062h.06l-.06.181.06.12h-.06a1.442 1.442 0 00-.118.484.787.787 0 01-.415 0c-.013-.312-.128-.294-.252-.483l.121-.062v-.059l.118.06v-.06h.058v-.181h.12l-.06-.12h.06a.623.623 0 00.059-.256c-.224-.197-.146-.356-.594-.363v-.087l-.178.059v-.06h-.058v.06l-.3.255c.054.243.16.256.18.543h.12c-.065.127-.096.107-.12.304h.12v.059h-.06v.059h.06v.12l.176.12c0 .023.045.205.06.256l.297.059v.06c.103.032.103-.055.118-.06l.239.06.06.244h.058c.035-.054.055-.166.178-.123v.03h.06v.423h.059v.122l.12.06v.255h-.06a.099.099 0 00.006.072c.011.023.03.04.054.048v.062h-.06c-.025.143.043.153.06.24l-.06.061h.178l-.06.12h.06a.169.169 0 01-.06.182v.059h.06l-.06.181.118.062v.059h-.118l-.058.181c-.017.059.038.082.058.123l-.178.12c-.063.095-.088.43-.297.363l-.236-.304c-.1-.049-.093.036-.121.061l-.176-.061a.593.593 0 01-.06.243c-.234-.064-.206-.171-.536-.182l-.058-.544h-.12c-.02.135-.056.112-.058.122v.302h-.06c-.093.136-.186.177-.237.363.415.123.093.535.654.663v-.13c.126.01.247.05.354.12v-.06h-.057c-.06-.14.12-.071 0-.301h.057c.06-.09.036-.11.179-.123v.061h.06l.058-.06.06-.18h.119v.12h.057v-.061c.086.038.043.071.118.12-.02.082-.04.161-.057.243l-.121.059.06.181-.118.062c-.048.115.058.422.058.422l-.118.061-.06.182-.177-.062-.06.062c-.052.157-.092.319-.118.483h-.12l-.058.181h-.06l.06.182-.179.059v.061h-.178v.06c-.068.068-.023 0-.06.122l-.177.059v.061h-.178c.02.061.04.12.058.182l-.415.363v.12h-.06l-.176.24h-.24l-.06.12a.084.084 0 01-.101-.024.088.088 0 01-.017-.034l-.118.059-.06.181.06.061-.118.062c-.118.184-.055.233-.357.24v-.059l-.239.06c-.04.17-.105.173-.176.301h-.12a.463.463 0 00-.297-.24c-.02.038-.038.079-.058.12l-.297-.062v.062h-.178v.061l-.179.12v-.12l-.178-.061-.06.12-.237-.059-.06-.243h-.118l-.06.182h-.355v-.062h-.06l-.06.123-.18-.061s-.014.069-.117.061v-.061h-.058v.061a.154.154 0 01-.178-.061l-.179.061-.118-.181c-.055-.026-.113.112-.252.058-.02-.038-.04-.079-.057-.12l-.179.062v-.062h-.093v-.059a.092.092 0 00-.07.005.094.094 0 00-.048.054l-.297-.059v-.046h-.06v-.061h.06l-.06-.12c-.178.056-.267 0-.415-.12l-.06-.123h-.176c0 .015-.086.22-.12.181v-.058l-.18-.123v-.059h-.117c-.058-.082-.119-.161-.179-.256l-.236.062c-.073-.031-.287-.366-.179-.422h-.357v-.123h-.178v-.056a.833.833 0 01-.415-.302h-.06a54.672 54.672 0 00-.058-.665l-.252-.181c-.02-.1-.037-.202-.057-.302l-.12-.062v-.12h-.059v-.12h-.06v-.182h-.058v-.112h-.06v-.123l-.118.061v-.194l-.297-.24v-.062h.058c0-.115-.058-.12-.058-.12l.058-.181h-.045v-.12h-.06l.06-.364-.121-.061v-.059h.06v-.363h-.06c-.068-.069 0-.023-.118-.061v-.12h-.118c.017-.139 0-.157.06-.24h.045v-.183h.06l-.06-.181h.06l-.06-.182h-.058a1.56 1.56 0 010-.603l-.12.059v-.243h.12l-.06-.062v-.058h.06l-.06-.256c-.12-.033-.053 0-.118-.059.068-.069.023 0 .058-.123l.239-.059-.06-.363c.014-.043.13-.025.117-.12h-.057v-.243h-.06l.06-.181-.119-.06c-.03-.107.053-.099.058-.12v-.181h.06v-.061c-.04-.067-.082.023-.06-.062h.06c.02-.1.04-.2.058-.301l-.118-.06-.058-.362h.058v-.062h-.058c.019-.244.058-.486.118-.723h-.118c.018-.041.038-.082.058-.12h-.058v-.062c.018-.033.098 0 .058-.12l-.118-.062c0-.084.023.018.06-.058 0-.087-.133-.238 0-.256v-.062h-.12v-.179h.12v-.061l-.12-.061v-.06h.06c0-.135-.06-.122-.06-.122a.795.795 0 01.06-.422h-.118c-.106-.064.118-.061.118-.061v-.36c-.12-.037-.053 0-.118-.062h.058l-.058-.24.118-.062-.06-.12h.06l.118-.363a.125.125 0 01-.058-.12h.058V6.93h-.058v-.24c-.022-.056-.153 0-.12-.182h.06v-.12h.06a.101.101 0 00-.006-.074.098.098 0 00-.054-.049v-.059h.06a.164.164 0 00-.06-.181v-.061h.06l-.06-.182.118-.059c.03-.105-.055-.107-.058-.123v-.36h.058c.06-.202-.075-.36-.058-.483h.058v-.062h-.058c.018-.061.038-.12.058-.181h.06c.018-.067-.093-.297-.06-.484h.06l-.06-.12V3.85h.06a.106.106 0 00-.06-.12c-.018-.1.058-.108.06-.12a.107.107 0 00-.06-.12l.06-.182a.467.467 0 00.357-.12v-.062l.594.061.058-.122c.14.013.279.033.417.061v.12l.354.12.06.425.119.059.06.544h.06v.182h.058v.12h.066l-.06.182.117.061v.483a.537.537 0 00-.296.361h-.118a6.197 6.197 0 00-.119-.844c-.12.033-.052 0-.118.059h-.06c-.065.123.065.176.06.243h-.06v.12h-.06l.06.182-.118.058c-.068.174.038.371.058.484h.06a.507.507 0 01.415-.24l.06.544s-.078.02-.06.12c.022.01.04.028.05.05a.109.109 0 01.01.07h-.06l.06.182h-.06c-.068.069 0 .023-.118.061l-.06-.304h-.059v-.059h-.178c-.063.08-.12.09-.178.182h-.06l.06.12h-.06v.12h-.059c.02.082.04.161.058.256h-.058v.059h.058c.06.082.12.16.179.243l.178-.123.06.061v-.12h.179l.058.24h.12l-.06.123h-.06v.06h.06a.399.399 0 00.179.18l-.06.12h.06v.397s-.06-.013-.06.12c.042.067.08-.02.06.062h-.06v.12h-.059v.256h-.06l.06.723-.12.062.06.12h-.06l.06.363h.06c.056.192-.083.304-.06.422h.06v.243h.058c.013.084-.047-.026-.058.059a.106.106 0 00.058.12c0 .087-.05-.023-.058.061-.015.13.058.12.058.12.045.185-.037.295-.058.425h-.12v.12h.12c.038.14.078.282.119.422l-.06.062c.02.033.09 0 .06.181-.016.085-.05-.025-.06.059.02.038.085 0 .06.123h-.06c-.066.255.077.493 0 .603v.12h-.059v-.061c-.158-.054-.118.166-.299 0v.123c-.075.105.078.363.121.542h.297l-.06.061c0 .085.042-.023.06.062v.301a.546.546 0 00-.24.06l.061.18.118.062c-.02.041-.04.08-.058.12h.058c-.02.223-.04.443-.058.665l.237.182c.085.169 0 .414 0 .665a.646.646 0 01.475.24c.06.059.05-.026.06.061h-.06v.06h.06l.058.18c.093.017.18.059.251.121v.062l.355.06c-.018.06-.038.121-.058.182l.118.06v.12c.191.045.216.081.239.301h.118v.123l.415.059v.061h.357l.06.12c.179.14.164.072.355.062v.12l.417.12c.15.028.176-.059.176-.059.168-.04.3.059.357.059 0 0 .05-.074.118-.059v.059h.357c.083 0-.025.064.06.061v-.061h.119v-.059h.414l.06-.122h.24c.05-.023 0-.075.175-.12.04-.167.078-.136.121-.302l.593.06v-.06h.119c.045-.023.025-.136.118-.12v.058h.06v-.179a.835.835 0 00.357-.181v-.062l.178.062v-.062c.06-.046.058-.074.119-.12l-.06-.256h.117c.04-.166.101-.13.121-.302l-.06-.058.297-.256v-.12h.047c.058-.082.118-.161.179-.243l.118-.059v-.302h.06l-.12-.424h.06l-.06-.182.12-.059c.043-.138-.05-.163-.06-.255l.06-.12h-.06v-.06c-.068-.04-.118 0-.118.06h-.06v-.12c.319-.198.077-.187.117-.484h.06c.019-.084-.047.023-.06-.061-.012-.085.043.023.06-.06l-.06-.18c.036-.067.146 0 .121-.182h-.06v-.364c0-.023-.108-.017-.118-.12l.118-.061v-.059h-.045l.06-.181c-.028-.057-.106-.024-.118-.12a.858.858 0 00.118-.484c0-.084-.098-.102-.06-.256l.12-.059c.015-.094-.108-.081-.12-.122v-.06h.06a.104.104 0 00-.06-.122v-.033h.06c.033-.143-.048-.159-.06-.256.017-.038.085 0 .06-.12h-.06l.06-.182-.118-.058.058-.123c-.02-.059-.038-.12-.058-.182h-.06l.06-.179h-.12c.087-.255-.021-.09 0-.304a.099.099 0 00.06-.12h-.06v-.12h-.074c.02-.182.04-.364.058-.545l-.118-.059.06-.181-.118-.062.058-.181h.06v-.06h-.06l.06-.255h-.06v-.082c0-.02-.086-.056-.118-.12h.118c.068-.069 0-.026.118-.061l.06-.302h.06l-.06-.182.118-.059v-.06h-.057c.02-.042.037-.083.057-.121l-.118-.061.06-.182-.178-.13c.02-.062.04-.12.058-.182a.09.09 0 01-.054-.047.094.094 0 01-.004-.073l.118-.062-.06-.301h-.058c.02-.06.04-.12.058-.182a.737.737 0 01-.118-.12h.118v-.12h.06l-.06-.182h-.118v-.243h-.058v-.059l.118-.061-.06-.182h.06c0-.11-.163-.196-.06-.483h.06v-.12h.058c-.018-.041-.038-.08-.058-.12h.058v-.12h.06l-.06-.607h.06v-.12l.118-.059v-.122h.06l-.06-.182.179-.12.297-.422.294.059zm-9.738 7.25h.06v-.062l.237.062a.295.295 0 00.178.255c-.035.12 0 .052-.058.12v.06c-.203-.057-.153-.128-.357-.18l-.06-.255zm.475 2.66h-.058v.178h-.06v.182h-.06c-.018.082-.038.16-.058.256h.058v.058c-.088-.058-.28-.317-.237-.483l.118-.059v-.545a.563.563 0 01-.118-.12h.06v-.061l.297.061c.064.17.085.352.063.532h-.005zM9.62 4.43c.043-.167.016-.136.18-.182v.12h.117l-.06.181h.06a.281.281 0 00.239.182v.061h.176l.06.182h.24v.059h.057v-.06c.12-.014.073.034.118.06.086 0-.023-.044.06-.06h.237c.038.144.02.113.12.18v.061h.058v-.061c.083-.02-.017.028.06.061h.18l.235.302h.121c.038.061.078.12.118.182h.058c.035.079-.045 0-.058.061-.012.061.04.12.058.182l.239-.062c.043.166.017.136.178.182v.12a.276.276 0 01.237.181c.13.141.042.33.12.484l.118.061c.101.12.111.187.119.422-.302.187-.046.202-.179.422l-.236.182c-.06.13.08.179.058.243l-.119.058v.302l-.178.062v-.062c-.136-.123-.038-.148-.118-.302 0 0-.088-.06-.118-.12h-.06c-.05.2-.134.174-.237.302a.462.462 0 01-.239-.12v-.062a.267.267 0 01-.236 0l-.179-.24h-.178l-.06-.123h-.058v.062c-.078.094-.06-.118-.06-.12-.164-.044-.134-.018-.179-.182l-.357.061c-.098-.122-.196-.255-.297-.363L9.8 7.268l-.06-.12h-.237l-.06-.12h-.118v-.062l-.118.061c-.088-.015-.12-.12-.12-.12l-.18.059v-.059a.97.97 0 01-.414-.483l.06-.182h-.06v-.181h.06v-.062l-.12-.058v-.072h.12v-.061h-.06v-.24c-.068.05 0 0-.06.058l-.176-.059v.059l-.121.061v.12h.06c0 .085-.043-.022-.06.062v.302c.108.056.095.084.239.12-.048.192-.159.256-.24.424h-.296v.06l-.178-.06-.118.182-.058-.061a.724.724 0 00-.536-.182c-.103.153-.156.207-.414.12v-.059h-.121v-.061h-.058v.061h-.239v.06l-.178-.06v.06l-.237-.06-.178.24h-.236v.062h-.06a.093.093 0 00-.047-.057.09.09 0 00-.072-.004l-.06.12h-.236l-.06.123h-.24v.059h-.057s-.033-.098-.119-.06l-.414.494c-.154.095-.111-.066-.237.12h-.06l.06.182h-.06a.726.726 0 00-.178.302l-.297.059v.071h.06a1.35 1.35 0 01-.178.363h-.06v.12h-.056v.182h-.06v.102h-.06c-.033.177.1.13.12.182v.422h-.12v.123h.12c-.045.145-.065.12 0 .301h.058l-.058.182.415.36v.123h.06v.12l.176.12v.062c.093.043.118-.061.12-.061l.237.12c.143.135.106.409.239.545.142-.142.302-.264.475-.364h.236v-.058c.086 0-.022.043.06.059h.245a.412.412 0 00.296.255v-.061c.048 0 .27.117.418.061v-.061h.118l.357-.302v-.12l.057.059c.184.11.21.294.357.424v-.061h.357c.083.015-.022.077.058.061v-.061h.418v.061l.414-.061v.128h.357a.5.5 0 01.118-.24h.06v-.302a.59.59 0 00.119-.123c.068.05 0 0 .06.061l.118.062a.707.707 0 000 .421l.119.062v.12a.333.333 0 01.2.098.342.342 0 01.096.204c.12.036.053 0 .118.061l.24-.061.06-.12.593.058v.123l.178.059c.078.102.159.202.236.302h.119l.06.123c.08.025 0-.024.06-.062l.176.062v.115l.24.061v-.123c.183.062.057.056.236 0v.182h.06v.061h-.06c-.026.136.032.164.06.24l.118-.058v.058h.06l-.06.12.06-.058.179.059-.06.243h-.058v.061h.057l.06.36.119.062-.06.12h.06l.06.182h.118v.12c.02.046.131.025.119.123l-.058.059.118-.06v.06h.118l.118.181h.06c.028.08-.027 0-.06.062l.06.178h.119c.054.22.093.441.118.665l-.176.062v-.062h-.12v-.058c-.187-.039-.076.112-.297 0v.058h-.058c-.04.12.058.156.118.182.06.026 0-.087.118-.059 0 0 0 .046.118.059 0 .192.116.112-.058.182v.181h-.06c-.11.054.118.061.118.061a1.066 1.066 0 000 .481h-.058l-.06.665h.178v-.059a.273.273 0 00.119-.243h-.058v-.061h.058c-.02-.102-.04-.202-.058-.304a.238.238 0 00.118-.12c.118.035.05 0 .118.06h.118c0 .118.063.407.06.423h-.06v.122h-.058a.816.816 0 000 .481l-.12.062c-.025.082.045-.023.06.061.015.084-.053.095-.06.12v.363h-.058a2.43 2.43 0 00-.178.484c-.164-.044-.134-.018-.179-.182l-.236-.061v.061l-.179.059v-.059h-.12l-.058-.181h-.06a.6.6 0 01-.297.483c.053.143.055.217.178.302v.061c.073 0 .159-.113.297-.061v.061h.118c.025.015.055.084.12.12l-.06.182h-.118a.772.772 0 01-.178.36h-.06c-.079.126-.016.159 0 .256a.816.816 0 01-.594.422l-.06.256-.236.059v.06l-.179-.06-.06.122h-.237l-.178.24h-.236l-.24.302h-.06v.243l-.236.06v.06a1.439 1.439 0 00-.239-.06c-.015.114-.057.122-.057.122.02.059.04.12.057.181a1.27 1.27 0 00-.176.18c-.226-.052-.251-.139-.238-.422.067-.07.022 0 .06-.12a.816.816 0 01-.239-.182h-.058v.12l-.12-.059v.059h-.058v-.059h-.179v.059h-.19v.061a.164.164 0 01-.18-.061l-.178.061v-.061H7.78v.061h-.12v.06h-.176l-.06.122-.415-.123v-.059c-.096.013-.103.116-.121.12h-.654a1.773 1.773 0 00-.057-.12l-.357.06v-.06h-.06v.06h-.237v-.06h-.297v-.061h-.238v-.059h-.119v-.061l-.236.061-.06-.123c-.083 0 .025.052-.06.062l-.297-.062v.062c-.181.061-.113.02-.297 0-.02-.1-.04-.202-.058-.302h-.06v-.061h-.239v-.06l-.176-.06v-.062a4.82 4.82 0 01-.535.123v-.102h-.06v-.182h-.058v.061l-.297.06v-.06c-.073-.058-.118-.197-.179-.255l-.178-.06-.06-.122h-.297l-.118-.179h-.239v-.03c-.065-.07-.023 0-.058-.12l-.357-.062v.061H.832v.059c-.078.036-.033-.028-.06-.059-.237-.071-.29-.176-.237-.363l-.118-.061-.06-.302h-.06l.06-.24-.118-.062v-.24l-.12-.062.06-.181-.119-.061c.02-.06.04-.12.058-.18-.022-.038-.08-.043-.118-.122.189-.113.146-.151.178-.36h.24v-.124l.296-.058v-.062h.058v-.181c.037-.077.027.018.06-.06l.297-.06v-.062h.415v-.059h.06s.015.077.118.06c0 0 .025-.09.118-.06l.06.12h.179v.12l.178-.058v-.062c.068 0 .181.098.297.12v.12h.06l-.06.124h.06a.403.403 0 00.302.235v.12c.103 0 .118.061.118.061l.179-.061v.061l.354.302c-.017.041-.038.082-.058.12h.058v-.058c.096-.064.053.092.06.12.335.04.197.156.357.243h.058v-.062l.179.062a.5.5 0 00.06.24h.06c.114.315-.25.279-.12.483.043.29.083.415.417.422a.543.543 0 00.118-.422c.068-.069.023 0 .06-.12-.168-.092-.228-.158-.25-.424l.296-.06.06.121.593.12v-.181l.179-.12c.02-.06.04-.12.058-.182h.12v-.059c.073-.059.116-.043.179-.123.118.036.05 0 .118.062.068.061.023 0 .058.12l.299.061c.02.172.073.136 0 .302h-.06l.06.12h-.292c-.017-.058-.037-.12-.057-.181h-.119c-.052.207-.123.156-.178.363l.118.061v.059H5.88v.123l-.12.059.06.483H5.7a.61.61 0 01.058.243l.654.059v.061h.12v.061c.119.018.07-.03.119-.061h.058a42.683 42.683 0 00-.119-.604l.119-.06a.096.096 0 00-.027-.102.092.092 0 00-.031-.019c0-.084.047.023.058-.061a.099.099 0 00-.006-.072.096.096 0 00-.052-.049c.02-.079.04-.16.058-.24l.356.12v-.061c.124-.067.106-.097.297-.12.08.14.204.184.297.301.128-.074.13-.135.299-.181.038-.128 0-.133.118-.059v-.113l.118-.058v-.197a.728.728 0 00.118-.12h.119a.71.71 0 00.417.375c.11-.148.068-.076.296-.058.08-.302.214-.143.297-.425.163-.043.133-.015.179-.181l.357-.12c.055-.108.08-.095.118-.241h.11v.059h.06v-.059h.119v-.061h.178l.118-.182h.06l-.06-.181.179-.12-.06-.241.12-.061-.06-.24h.06v-.318h.058a.107.107 0 00-.008-.07.104.104 0 00-.05-.05c.018-.08.038-.161.058-.24-.083-.044-.073-.09-.118-.123-.15-.11-.11.066-.179-.18h.06v-.06h-.06v-.484l-.178-.061v-.06l-.178.06v-.12h-.058v-.062h.058v-.302c-.106-.056-.094-.082-.237-.12-.04-.176-.065-.197-.239-.24a.459.459 0 00-.118-.256h-.058c.018-.04.038-.08.058-.12l-.236-.062v-.12H9.2l-.06-.12c-.21-.084-.375.102-.476.12l-.357-.061v-.059l-.533.12-.06-.12-.711-.061v.302h-.066v-.06H6.76v-.06H6.7v-.182c-.036-.077-.026.018-.058-.06l-.24.06c-.062-.041.023-.082-.057-.06-.04.072.065.126-.06.121v-.061h-.1v-.06c-.084.014-.099.093-.252.06v-.06h-.058v.06a.137.137 0 01-.12-.06l-.177.06v-.06h-.12v-.06l-.355.06v-.06h-.12a1.773 1.773 0 00-.058-.12c-.073 0-.267.127-.418.058l-.057-.12H4.33l-.12-.182-.179.062s-.02-.09-.118-.062l-.058.12c-.11.039-.085-.035-.12-.058-.151 0-.252.084-.415 0l-.06-.12h-.058v.058c-.16.01-.322-.01-.475-.058-.096-.177-.207-.233-.24-.484l-.354-.061s-.022.1-.12.061a25.629 25.629 0 00-.297-.424h.06v-.06h-.06v.06c-.083.015.018-.023-.058-.06H1.6l.06-.114-.12-.059a.541.541 0 01-.179-.425l-.354-.058v-.062c-.083 0 .022.044-.06.062H.653c.022-.205.203-.494.118-.727H.714v-.12h-.06v-.061h.06c.053-.1-.083-.049-.12-.059-.018-.061-.038-.12-.059-.181 0 0 .093-.023.058-.12l-.118-.062.06-.182h-.06v-.12H.417c.018-.16.038-.322.058-.483 0 0-.304-.082-.236-.12h.058C.27 9.659.214 9.638.239 9.498c0 0 .063-.016.058-.12-.005-.105-.06.025-.058-.062h.058v-.483H.239l.058-.422s-.103-.028-.119-.12h.06v-.302s.039 0 .059-.123h.12v-.12h.118v-.12h.119l-.06-.302C.7 7.234.8 7.132.89 7.022c.123-.296-.076-.445 0-.726h.06v-.171h.06v.061a.904.904 0 00.415-.24l-.06-.123h.12v-.059h.174c.018-.082.038-.161.058-.256h.118c.073-.125.153-.246.239-.363.176-.143.279-.069.357-.36l.533.12v-.12h.296v.12c.317.056.207 0 .476-.062v-.181h.186l.06-.12h.058v.061h.299s.04.102.118.12l.118-.181.654-.182.06-.179c.231.013.35.187.533.12.045-.015.04-.186.239-.12.048.016-.015.13.236.12.252-.01.503-.301.654-.181.118.056.231.222.415.181V4.24l.178-.059v.059h.118l.12.182.298.06v.06l.178.061v-.061c.128-.098.267-.179.415-.24l.948.127zm1.366 10.088l.118-.062-.058-.12a.718.718 0 01.297-.061c.04.122.078.255.118.363h.118c.06.181.12.363.178.544H11.7l-.06.182-.18.059c-.075-.123-.203-.125-.236-.182-.118-.197.154-.217-.178-.301l-.239-.06v-.122h.12c.018-.08.034-.161.059-.24z" fill="#D51644"/><path d="M125.417 1.107v.12c.156.085.1.108.357.12.032-.038.138-.16.236-.12v.062c.252.069.063.04.179.181h.06v.052l.176.061.06.12h.252v.074h.113v.06h.118l.06.122h.297s0 .036.118.059v.181c.078.041.163.174.179.182h.178a.333.333 0 01.201.097.347.347 0 01.096.205h.118c-.068.212-.038.255.118.422l.06.122h.297v-.061l.251.061c0 .576.312.696.415 1.146h.118v.123a.33.33 0 01.201.097.342.342 0 01.096.204h.06v.182h.118v.059c.066 0 .121-.125.252-.059v.059c.158.143.03.184.118.363h.06c.103.156.113.15.118.422h-.06c-.02.102-.04.202-.058.302l-.12-.06v.06a.897.897 0 01.06.665h-.06l.06.301h.118a.522.522 0 00-.058.363l.118.062v.059h-.06c0 .133.06.122.06.122-.04.282-.08.563-.118.844h-.06c-.068.07 0 .026-.118.062a1.17 1.17 0 01-.061.24l.179.123v.227h.06v.12h.058l-.058.182h.058c.053.2-.101.435-.058.545h.058c.091.143.186.171.251.363h.176c.136.256.126.378.121.785.113.074.098.061.118.24h.118c-.02.062-.04.12-.057.182l-.179.061a.87.87 0 01-.06.361l-.179.061v.12h-.178v.244h-.058c.02.058.04.12.058.181 0 0-.325.307-.297.36h.06c.068.106.038.083.179.123v.302h-.06v.059h.06v.425h.058v.181h.06v.059h-.06l.06.256-.178.12c-.041.38-.078.767-.119 1.148h-.238c-.093.169-.277.3-.355.483l-.06.484-.415.36c-.058.118.015.317-.06.425l-.179.059-.118.255h-.251c-.018.06-.038.12-.058.182l-.179.059v.061c-.12.105-.186.112-.236.302-.166.043-.133.018-.178.181-.056.064-.078.023-.061.182h.061l-.061.12a.408.408 0 00-.178.182 1.731 1.731 0 00-.593-.062v.123a2.7 2.7 0 00-.415.12l-.061.182c-.271-.072-.16-.115-.475-.062l-.06.182s.128 0 .06.061h-.118c-.053.067 0 .013-.06.06h-.058l-.06.12h-.179l-.06.122h-.297c.071-.215 0-.3-.296-.302-.252.374-.272-.025-.594 0-.153.108-.563-.033-.832-.122h-.337v-.06l-.357.121v-.067h-.118c-.04-.058-.078-.12-.118-.181h-.239l-.058-.12c-.188-.072-.271.181-.475 0-.068-.07-.025 0-.06-.12-.116-.018-.118-.062-.118-.062-.151-.043-.121.11-.297 0l-.06-.12a.723.723 0 00-.357-.182v-.12c-.252-.102-.518-.125-.593-.422h-.119v-.122h-.047v-.06h-.252l-.06-.18-.236-.182v-.12h-.118v-.182h-.061v.061c-.05.113-.06-.123-.06-.123a.93.93 0 01-.355-.181.8.8 0 00.058-.302h-.118c-.03-.317-.141-.271-.357-.302a.477.477 0 00-.118-.301h-.06v-.259l-.119-.061.061-.182-.179-.12v-.12h-.037v-.606s-.058 0-.058-.12l.058-.06h-.058v-.122h-.061l-.06-.302h-.073v-.24h-.06c-.071-.256.123-.386.118-.545h-.058v-.24l-.118-.061c0-.018.073-.123.058-.24h-.058v-.05h.058v-.301h.06v-.123h.058v-.24h.06v-.062c-.015-.033-.09 0-.06-.12h.06l.061-.181h-.061l-.06-.182h-.058c-.038-.095.058-.115.058-.12v-.059h-.058v-.425h-.06a.965.965 0 010-.483l-.118-.059v-.304h.06l-.06-.179c.035-.13.163-.256.118-.483-.015-.085-.045.023-.058-.062 0-.023.101 0 .058-.12l-.179-.12c.081-.223.159-.445.252-.665h-.061c-.015-.084.046.023.061-.061l-.061-.182h.048v-.181h.058V8h-.058V7.7l-.118-.061v-.302h.058c-.02-.062-.04-.12-.058-.182h.058c.065-.192.033-.15 0-.302l.118-.06.06-.361.119-.062v-.302h.06v-.255h.06v-.36h-.06c-.018-.103.055-.108.06-.124l-.06-.181.178-.12v-.182l.237-.182v-.12l.296-.24v-.182h.061v-.12h.06v-.179l.178-.061a.926.926 0 00.237-.542l.236-.062.06-.181h.061V2.8l.178-.12v-.061h.236l.061-.12.236-.182c.171-.235.053-.294.475-.302v-.12c.126-.023.116-.059.118-.061h.357c.041-.06.081-.12.119-.182l.356-.059v-.071l.476-.06V1.34l.296-.059V1.22l.252.061V1.22l.176.061V1.22h.357v-.062l.535.123c.141-.033.342-.299.357-.302.166-.053.251.22.354.24.104.021-.022-.043.061-.06l.465-.052zm-.772 2.537v-.061c.181-.064.251.255.357.301l.593.062.237.302.417.12v.061l.118.062-.06.12h.06v.059h.415v.061h.068l.06.302h.118l.058.181c-.028.039-.09 0-.058.12h.058l.06.302c.252.07.335.256.415.484v.242h.043v.12h.06v.425l.297.24a1.166 1.166 0 01-.179.182v.302h-.06v.483h-.058v.12h-.06l.06.062c0 .1-.161.169-.12.302l.178.12c.055.179-.201.276-.118.544h.06c.018.06.038.12.058.182h-.058a.705.705 0 00-.06.422h.06v.181h.058v.12h.06v.256h.073c-.037.12-.078.24-.118.361h.06v.665h-.06v.181h-.058c0 .085.048-.023.058.062v.302h-.058c.018.079.038.16.058.24h-.058c-.063.256.053.355-.12.483.042.174.065.202.251.243-.025.343-.075.218-.178.422v.12h-.061l.061.425h.06c.012.066-.06.12-.06.12l.06.182h-.088c-.065.184-.043.153 0 .301h-.118s0 .236-.061.12v-.058h-.06l.06.179-.178.061-.058-.061v.048c-.286.218.045.123-.06.422h-.061v.123h-.057l-.061.18c-.251.073-.075.035-.178.18l-.118.062v.12h-.056l.061.12-.179.123v.059h-.118c-.153.115-.1.23-.357.302v.061l-.533.061v.12h-.299c-.018.042-.038.08-.058.12h-.178v.062h-.118v.06c-.086 0 .022-.044-.061-.06h-.171v-.069h-.296v.062l-.119-.062v.12l-.296-.058c-.083-.057 0-.151-.06-.243l-.297-.24a.801.801 0 000 .541l-.179.062v-.062h-.178v-.058h-.058c-.058.012.015.097-.06.058v-.058a.551.551 0 00-.237-.123v-.12h-.357l-.06-.12h-.236v-.062c-.201-.161-.053-.273-.357-.36v-.123a3.224 3.224 0 01-.593-.24v-.364c-.204-.056-.154-.128-.357-.181a1.487 1.487 0 00-.179-.484l-.118-.059c-.04-.181-.08-.363-.118-.544l-.121-.059.06-.665h.061V13.3h.058c.015-.082-.046.026-.058-.058l.058-.182h-.058v-.182h-.061v-.104h-.057c-.068-.2.073-.348.06-.484h-.06v-.061h.06a.135.135 0 00-.06-.12c-.02-.195.181-.356.299-.422-.045-.182-.098-.133-.121-.182v-.256h-.058v-.36h.058c-.02-.061-.038-.123-.058-.182-.02-.059.058.023.058-.061l-.118-.061a.318.318 0 010-.302h.06l-.06-.182h.06l-.06-1.207h-.06l.06-.181a.107.107 0 01-.06-.12h.06V8.53h-.06a.17.17 0 01.004-.1c.01-.032.03-.06.056-.081v-.06h-.06v-.255h.06l-.06-.422h.12v-.061c-.12-.026-.03-.133-.06-.24h-.06l.06-.182a.162.162 0 01-.06-.182h.06v-.181l.118-.06v-.122h.061a.115.115 0 00.004-.037.092.092 0 00-.065-.083c-.017-.115.061-.12.061-.12l-.061-.243h.061a.882.882 0 00.178-.36c.251-.073.103-.11.236-.257l.179-.058v-.062l.178-.12v-.123h.061v-.24h.057l.061-.256a.341.341 0 00.296-.302h.119c.037-.15.035-.094.118-.179l.06-.122h.297l.06-.12.118.06v-.06h.239V3.84h.118v-.018h.179c.047-.023.309-.217.414-.181l.119.181a.085.085 0 00.073-.003.088.088 0 00.047-.058l.176.061v-.12l.252-.061a.398.398 0 00.178.181v.12h.118c-.012-.227-.03-.25.161-.299zm-1.9 14.559h.06c.045-.167.012-.138.176-.182v.422l-.236-.059v-.181zM149.17 20.075h.119v.115h.118c-.038.079-.093.084-.118.122l.06.12c-.06.175-.08.36-.06.543h.06v.238h-.06v.06l.06.121a.16.16 0 00-.06.182h.06c.028.117-.028.076-.06.12v.061s.103.06 0 .12v.06h.06c.183.319.596.403.651.846l-.354.061c-.041.059-.081.12-.119.182h-.052l-.061.36-.191.128-.058.18-.178.06v.062a.414.414 0 01-.297.12c-.163-.23-.201.02-.475 0v-.061l-.178.061v-.061h-.061v.061l-.533.061c.038-.242.078-.483.119-.726h-.061l-.058-.24h.058v-.123h.061v-.302h.118c.063-.082.173-.105.251-.181v-.06h-.06c.058-.122.09-.142.239-.18.037-.182.077-.364.118-.545l.178-.12v-.12h.063l-.118-1.088-.118-.061.118-.302h-.06v-.255l-.119-.06v-.212h-.057a.533.533 0 01-.121-.24c.06-.03.111-.115.121-.12h.236V19c-.252-.222-.101-.398-.118-.726l-.061-.12h.046c.02-.059.04-.12.057-.181h.061l-.061-.24h-.057a.094.094 0 01.005-.073.1.1 0 01.052-.048c.016-.102-.057-.123-.057-.123.02-.08.04-.16.057-.24h.194c-.033-.256-.131-.2-.236-.363l.178-.12-.06-.243a.099.099 0 00.052-.049.105.105 0 00.008-.072h-.06v-.059c.035-.048.088.018.06-.06h-.06v-.121l-.133-.064a.08.08 0 01-.008-.037.08.08 0 01.009-.037.079.079 0 01.023-.03.087.087 0 01.033-.016 1.56 1.56 0 00-.057-.12c-.02-.039.08 0 .118-.182.201-.054.181-.112.178-.363-.063-.046-.148-.043-.118-.182l.118-.061-.045-.25h-.118v-.241a.61.61 0 00.297-.061v.061c.12.08.113.097.118.302h-.058c-.081.174.1.204.118.24l.06.302h.058l-.058.243h-.06c-.08.238.126.57.118.603h-.058l-.06.364h.06v.178l.118.062v.726l-.118.059c-.05.128.141.63.176.726h.061c.015.082-.051-.025-.061.059 0 .123.061.123.061.123l-.061.422h-.058l-.06.302h.06c.021.16.041.322.058.483h.061a.579.579 0 01.047.302zm-1.543-1.389h.297v.363a.771.771 0 01-.297.059 1 1 0 010-.422z" fill="#392B85"/></g><defs><clipPath id="clip0_7_151"><path fill="#fff" d="M0 0h150v24H0z"/></clipPath></defs></svg>